<?xml version="1.0" encoding="UTF-8" standalone="no"?>
<!-- Created with Inkscape (http://www.inkscape.org/) -->

<svg
   width="897.45917"
   height="260.81186"
   viewBox="0 0 237.45273 69.006472"
   version="1.1"
   id="svg274"
   inkscape:version="1.2.2 (732a01da63, 2022-12-09)"
   sodipodi:docname="revelry-engine-light.svg"
   xmlns:inkscape="http://www.inkscape.org/namespaces/inkscape"
   xmlns:sodipodi="http://sodipodi.sourceforge.net/DTD/sodipodi-0.dtd"
   xmlns="http://www.w3.org/2000/svg"
   xmlns:svg="http://www.w3.org/2000/svg">
  <sodipodi:namedview
     id="namedview276"
     pagecolor="#505050"
     bordercolor="#eeeeee"
     borderopacity="1"
     inkscape:showpageshadow="0"
     inkscape:pageopacity="0"
     inkscape:pagecheckerboard="true"
     inkscape:deskcolor="#505050"
     inkscape:document-units="px"
     showgrid="false"
     showguides="true"
     inkscape:zoom="0.70710678"
     inkscape:cx="738.21948"
     inkscape:cy="383.95898"
     inkscape:window-width="2560"
     inkscape:window-height="1377"
     inkscape:window-x="1528"
     inkscape:window-y="-8"
     inkscape:window-maximized="1"
     inkscape:current-layer="layer2"
     inkscape:lockguides="true">
    <inkscape:grid
       type="xygrid"
       id="grid13644"
       originx="0"
       originy="0"
       empspacing="10" />
  </sodipodi:namedview>
  <defs
     id="defs271" />
  <g
     inkscape:groupmode="layer"
     id="layer2"
     inkscape:label="Layer 2"
     transform="translate(-279.3436,-9.123328)">
    <g
       aria-label="Revelry"
       id="text46878-8"
       style="font-size:52.1369px;line-height:1.25;font-family:'Open Sans';-inkscape-font-specification:'Open Sans, Normal';letter-spacing:0px;word-spacing:0px;stroke-width:1.08618">
      <path
         d="m 379.88472,56.474551 q -2.76326,0 -4.84873,-1.616244 -2.03334,-1.668381 -4.53592,-5.943607 l -5.21369,-8.863273 h -3.64958 v 15.901755 h -4.69232 V 27.799255 q 0,-2.658982 -0.72992,-3.910267 -0.72991,-1.303423 -2.91966,-1.303423 h -1.04274 v -1.042738 h 13.55559 q 4.95301,0 8.96755,1.981202 4.06668,1.929066 4.06668,7.40344 0,6.934208 -8.34191,8.863274 l 5.47438,9.123957 q 1.92906,3.232488 3.44104,4.535911 1.5641,1.251286 3.59744,1.459833 v 1.042738 q -0.46923,0.208548 -1.35556,0.364959 -0.83419,0.15641 -1.77265,0.15641 z M 365.54707,38.226636 q 1.61624,0 3.49317,-0.782054 1.92907,-0.782053 3.23249,-2.450434 1.35556,-1.668381 1.35556,-4.066679 0,-2.554708 -1.35556,-4.223089 -1.30342,-1.720517 -3.23249,-2.502571 -1.87693,-0.83419 -3.49317,-0.83419 -1.82479,0 -3.91027,0.521369 v 13.816279 q 2.08548,0.521369 3.91027,0.521369 z"
         style="font-family:Philosopher;-inkscape-font-specification:Philosopher"
         id="path626" />
      <path
         d="m 395.36934,56.474551 q -3.54531,0 -5.99574,-1.668381 -2.45044,-1.720517 -3.70172,-4.588047 -1.25129,-2.919666 -1.25129,-6.517113 0,-3.545309 1.25129,-6.464976 1.25128,-2.919666 3.59744,-4.588047 2.3983,-1.720518 5.57865,-1.720518 5.26583,0 7.82054,2.971804 2.60684,2.919666 2.60684,8.498315 l -0.10427,2.085476 H 389.3736 q 0,4.3795 1.87693,7.142755 1.87693,2.763256 5.16155,2.763256 2.45043,0 4.11882,-1.042738 1.72051,-1.042738 3.18035,-3.128214 l 1.04273,0.782054 q -1.72051,2.867529 -4.01454,4.170952 -2.29402,1.303422 -5.3701,1.303422 z m 4.95301,-14.076963 q 0,-4.588048 -1.35556,-6.986345 -1.35556,-2.398298 -4.11882,-2.398298 -1.5641,0 -2.81539,1.251286 -1.25129,1.199149 -1.9812,3.336762 -0.67778,2.137613 -0.67778,4.796595 z"
         style="font-family:Philosopher;-inkscape-font-specification:Philosopher"
         id="path628" />
      <path
         d="m 412.4182,37.444582 q -1.25129,-2.919666 -2.3983,-4.066678 -1.14701,-1.199149 -3.02394,-1.303423 v -1.042738 q 0.26069,0 0.72992,-0.05214 0.52137,-0.05214 1.04274,-0.05214 2.76325,0 5.00514,1.407697 2.24188,1.355559 3.85813,5.109416 l 4.69232,11.209434 7.29917,-17.205178 h 2.60684 l -10.68806,25.025713 h -1.04274 z"
         style="font-family:Philosopher;-inkscape-font-specification:Philosopher"
         id="path630" />
      <path
         d="m 446.04651,56.474551 q -3.54531,0 -5.99574,-1.668381 -2.45044,-1.720517 -3.70172,-4.588047 -1.25129,-2.919666 -1.25129,-6.517113 0,-3.545309 1.25129,-6.464976 1.25128,-2.919666 3.59744,-4.588047 2.3983,-1.720518 5.57865,-1.720518 5.26583,0 7.82054,2.971804 2.60684,2.919666 2.60684,8.498315 l -0.10427,2.085476 h -15.79748 q 0,4.3795 1.87693,7.142755 1.87693,2.763256 5.16155,2.763256 2.45043,0 4.11882,-1.042738 1.72051,-1.042738 3.18035,-3.128214 l 1.04273,0.782054 q -1.72051,2.867529 -4.01454,4.170952 -2.29402,1.303422 -5.3701,1.303422 z m 4.95301,-14.076963 q 0,-4.588048 -1.35556,-6.986345 -1.35556,-2.398298 -4.11882,-2.398298 -1.5641,0 -2.81539,1.251286 -1.25129,1.199149 -1.9812,3.336762 -0.67778,2.137613 -0.67778,4.796595 z"
         style="font-family:Philosopher;-inkscape-font-specification:Philosopher"
         id="path632" />
      <path
         d="m 462.15686,27.799255 q 0,-2.658982 -0.72991,-3.910267 -0.72992,-1.303423 -2.91967,-1.303423 h -1.04274 v -1.042738 h 4.69232 q 1.92907,0 2.86753,0.521369 0.9906,0.469232 1.4077,1.772655 0.41709,1.303422 0.41709,3.962404 v 28.153927 h -4.69232 z"
         style="font-family:Philosopher;-inkscape-font-specification:Philosopher"
         id="path634" />
      <path
         d="m 474.98257,37.705267 q 0,-2.658982 -0.72991,-3.910268 -0.72992,-1.303423 -2.91967,-1.303423 h -0.52137 v -1.042738 h 4.17095 q 1.98121,0 2.97181,0.573506 1.04274,0.521369 1.45983,1.772655 h 0.26069 q 0.93846,-1.199149 2.50257,-2.033339 1.61624,-0.834191 3.75385,-0.834191 2.08548,0 3.12822,0.782054 0.88633,0.67778 1.82479,2.34616 l -2.08548,1.564107 q -0.5735,-0.782053 -1.66838,-1.147011 -1.09487,-0.417096 -2.50257,-0.417096 -1.56411,0 -2.86753,0.729917 -1.30342,0.67778 -2.08547,1.876929 v 19.290653 h -4.69233 z"
         style="font-family:Philosopher;-inkscape-font-specification:Philosopher"
         id="path636" />
      <path
         d="m 496.98431,64.816456 q 2.55471,0 4.17095,-1.199149 1.66838,-1.147012 2.86753,-4.275226 l 1.04274,-2.86753 -8.34191,-20.333391 q -1.45983,-3.753857 -5.73506,-4.170953 v -1.042738 h 4.43164 q 4.53591,0 6.25643,4.170952 l 5.94361,14.441922 6.56925,-18.091505 h 2.60684 l -10.16669,27.893243 q -1.51198,4.118815 -3.33677,5.578648 -1.82479,1.459834 -4.74445,1.459834 h -1.56411 z"
         style="font-family:Philosopher;-inkscape-font-specification:Philosopher"
         id="path638" />
    </g>
    <g
       aria-label="ENGINE"
       id="text46882-0"
       style="font-size:17.2198px;line-height:1.25;font-family:'Open Sans';-inkscape-font-specification:'Open Sans, Normal';letter-spacing:6.72649px;word-spacing:0px;stroke-width:0.34086">
      <path
         d="m 386.23854,63.147683 q 0,-0.87821 -0.24107,-1.291485 -0.24108,-0.430495 -0.96431,-0.430495 h -0.1722 v -0.516594 h 7.59393 q 1.46368,0 1.46368,1.377584 v 1.463683 h -0.51659 q 0,-1.067628 -0.55103,-1.567002 Q 392.31713,61.684 391.2495,61.684 h -2.77238 v 4.30495 h 4.47714 v 0.774891 h -4.47714 v 4.735446 h 2.94458 q 0.98153,0 1.63588,-0.430496 0.65436,-0.447714 1.08485,-1.532562 l 0.46494,0.172198 -0.49938,1.360364 q -0.22386,0.619913 -0.53381,0.91265 -0.30996,0.292737 -0.96431,0.292737 h -6.37133 z"
         style="font-weight:bold;font-family:Philosopher;-inkscape-font-specification:'Philosopher Bold'"
         id="path641" />
      <path
         d="m 404.20957,63.750376 v 8.523802 h -0.86099 v -9.298693 q 0,-0.723232 -0.36162,-1.136507 -0.34439,-0.413275 -1.18816,-0.413275 h -0.0861 v -0.516594 h 1.20538 q 0.96431,0 1.567,0.258297 0.61992,0.241077 1.03319,0.774891 l 5.92361,6.88792 v -7.921108 h 0.86099 v 11.416728 h -0.79211 z"
         style="font-weight:bold;font-family:Philosopher;-inkscape-font-specification:'Philosopher Bold'"
         id="path643" />
      <path
         d="m 427.10544,72.618574 q -1.75642,0 -3.18566,-0.809331 -1.41203,-0.826551 -2.22136,-2.238574 -0.79211,-1.429244 -0.79211,-3.151224 0,-1.653101 0.70601,-2.979025 0.70602,-1.343145 1.9975,-2.100816 1.30871,-0.774891 2.97903,-0.774891 1.51534,0 2.58297,0.396055 1.06762,0.396056 1.58422,0.998749 0.29274,0.378835 0.36161,0.964309 0.0861,0.585473 0.0861,1.429243 h -0.51659 q -0.32718,-1.567002 -1.20539,-2.290233 -0.86099,-0.723232 -2.37633,-0.723232 -1.92862,0 -2.85849,1.446463 -0.92987,1.446464 -0.92987,3.633378 0,2.944586 1.01597,4.236071 1.03319,1.274266 2.77239,1.274266 1.34315,0 2.32467,-0.447715 v -3.065125 q 0,-0.912649 0.6888,-1.498123 0.68879,-0.602693 2.65185,-0.602693 v 0.430495 q -1.10207,0 -1.10207,1.635882 v 3.082344 q -0.98153,0.602693 -2.10082,0.87821 -1.11928,0.275517 -2.46243,0.275517 z"
         style="font-weight:bold;font-family:Philosopher;-inkscape-font-specification:'Philosopher Bold'"
         id="path645" />
      <path
         d="m 442.57958,72.274178 q -0.61991,0 -0.94709,-0.189418 -0.32718,-0.206638 -0.46493,-0.671572 -0.13776,-0.482155 -0.13776,-1.377585 v -9.126494 h 2.23857 v 9.126494 q 0,0.87821 0.24108,1.308705 0.24108,0.413276 0.96431,0.413276 h 0.1722 v 0.516594 z"
         style="font-weight:bold;font-family:Philosopher;-inkscape-font-specification:'Philosopher Bold'"
         id="path647" />
      <path
         d="m 454.17929,63.750376 v 8.523802 h -0.86099 v -9.298693 q 0,-0.723232 -0.36162,-1.136507 -0.34439,-0.413275 -1.18816,-0.413275 h -0.0861 v -0.516594 h 1.20539 q 0.9643,0 1.567,0.258297 0.61991,0.241077 1.03319,0.774891 l 5.92361,6.88792 v -7.921108 h 0.86099 v 11.416728 h -0.79211 z"
         style="font-weight:bold;font-family:Philosopher;-inkscape-font-specification:'Philosopher Bold'"
         id="path649" />
      <path
         d="m 471.90922,63.147683 q 0,-0.87821 -0.24108,-1.291485 -0.24108,-0.430495 -0.96431,-0.430495 h -0.17219 v -0.516594 h 7.59393 q 1.46368,0 1.46368,1.377584 v 1.463683 h -0.51659 q 0,-1.067628 -0.55104,-1.567002 Q 477.98781,61.684 476.92018,61.684 h -2.77239 v 4.30495 h 4.47715 v 0.774891 h -4.47715 v 4.735446 h 2.94459 q 0.98153,0 1.63588,-0.430496 0.65435,-0.447714 1.08485,-1.532562 l 0.46493,0.172198 -0.49937,1.360364 q -0.22386,0.619913 -0.53382,0.91265 -0.30995,0.292737 -0.9643,0.292737 h -6.37133 z"
         style="font-weight:bold;font-family:Philosopher;-inkscape-font-specification:'Philosopher Bold'"
         id="path651" />
    </g>
    <path
       id="path45293-4"
       style="fill:#505658;fill-opacity:1;stroke:#505658;stroke-width:1.05833;stroke-linecap:round;stroke-linejoin:round;stroke-dasharray:none;stroke-opacity:1"
       d="m 288.08571,22.047477 a 33.690947,33.690947 0 0 0 -3.31099,38.42929 33.690947,33.690947 0 0 0 3.29549,4.693942 15.160927,15.160927 0 0 1 7.35174,-15.704003 15.160927,15.160927 0 0 1 20.71021,5.549288 15.160927,15.160927 0 0 1 -5.54928,20.710215 15.160927,15.160927 0 0 1 -2.34374,1.08893 33.690947,33.690947 0 0 0 22.55826,-4.00664 33.690947,33.690947 0 0 0 14.74898,-17.532703 15.160927,15.160927 0 0 1 -2.11491,1.485259 15.160927,15.160927 0 0 1 -20.71021,-5.549281 15.160927,15.160927 0 0 1 5.54928,-20.710211 15.160927,15.160927 0 0 1 17.27098,1.47135 33.690947,33.690947 0 0 0 -2.41237,-5.187095 33.690947,33.690947 0 0 0 -34.90952,-16.35297 15.160927,15.160927 0 0 1 7.91249,6.652787 15.160927,15.160927 0 0 1 -5.54928,20.710211 15.160927,15.160927 0 0 1 -20.71021,-5.54928 15.160927,15.160927 0 0 1 -1.78692,-10.199089 z" />
    <path
       id="path45295-7"
       style="display:inline;fill:#0daafd;fill-opacity:1;stroke:none;stroke-width:1.05833;stroke-linecap:round;stroke-linejoin:round;stroke-dasharray:none;stroke-opacity:1"
       d="m 306.37146,61.137623 c 10e-6,-2.325883 1.8855,-4.21137 4.21137,-4.21137 8.04562,0 8.07843,16.162416 -6.73819,15.882246 -10.97624,-0.20753 -20.40188,-20.684433 -3.36909,-29.177215 16.98912,-8.471001 14.48086,-17.326414 10.06277,-21.764367 -4.41808,-4.437944 -15.37201,-3.059869 -13.70992,7.987806 1.16294,-2.01427 3.73857,-2.704414 5.75284,-1.541473 2.01426,1.162933 2.70441,3.738566 1.54147,5.752835 -4.02282,6.967704 -18.03628,-1.085087 -10.38535,-13.776569 5.66787,-9.401943 28.1142,-7.32633 26.95276,11.670884 -1.15846,18.948508 7.76469,21.204003 13.81711,19.596802 6.05243,-1.60721 10.33594,-11.782627 -0.0627,-15.867041 1.16295,2.014269 0.47281,4.589902 -1.54146,5.752835 -2.01426,1.162941 -4.58989,0.472797 -5.75283,-1.541465 -4.02281,-6.967712 9.95784,-15.077336 17.12352,-2.105685 5.30839,9.609486 -7.7123,28.010763 -23.58366,17.506323 -15.83066,-10.477499 -22.24555,-3.877573 -23.87987,2.167573 -1.63433,6.045157 5.03608,14.842497 13.77259,7.879247 -2.32588,0 -4.21137,-1.8855 -4.21137,-4.211366 z"
       sodipodi:nodetypes="ssssscccssscssssscs" />
    <circle
       style="display:inline;fill:#505658;fill-opacity:1;stroke-width:0.603806;stroke-linecap:round;stroke-linejoin:round"
       id="circle14903"
       cx="249.98607"
       cy="194.70514"
       r="34.503235"
       transform="rotate(-30)" />
    <path
       id="path14909"
       style="display:inline;fill:#788285;stroke-width:0.603806;stroke-linecap:round;stroke-linejoin:round"
       inkscape:transform-center-y="1.9729095"
       d="m 329.90595,15.711398 c 0,0 4.64358,18.482294 4.64285,27.915174 -6.6e-4,9.424068 -4.64285,27.88838 -4.64285,27.88838 0,0 -18.26065,-5.258019 -26.41007,-9.959974 -8.1779,-4.718396 -21.91722,-17.941802 -21.91722,-17.941802 0,0 13.74458,-13.198805 21.91722,-17.91501 8.15179,-4.704175 26.41007,-9.986768 26.41007,-9.986768 z"
       sodipodi:nodetypes="cacacac"
       inkscape:transform-center-x="4.5940651" />
    <path
       id="path14911"
       style="display:inline;fill:#fdda0d;fill-opacity:1;stroke:none;stroke-width:0.326015;stroke-linecap:round;stroke-linejoin:round;stroke-opacity:1"
       d="m 306.08362,61.554981 c 0,-2.381955 1.93096,-4.312908 4.31291,-4.312905 8.2396,0 8.2732,16.552088 -6.90065,16.265173 -11.24088,-0.212552 -20.89377,-21.183142 -3.45032,-29.880677 17.39872,-8.675238 14.83,-17.744162 10.30539,-22.289105 -4.52462,-4.544947 -15.74265,-3.133647 -14.04047,8.180381 1.19097,-2.062831 3.8287,-2.769611 5.89153,-1.578635 2.06283,1.190978 2.76961,3.828707 1.57864,5.891538 -4.1198,7.135697 -18.47113,-1.111248 -10.63573,-14.108722 5.80452,-9.628617 28.79202,-7.502968 27.60258,11.952271 -1.18638,19.405353 7.9519,21.715229 14.15024,20.069278 6.19835,-1.645957 10.58514,-12.066704 -0.0642,-16.249595 1.19097,2.062831 0.4842,4.700561 -1.57863,5.891537 -2.06283,1.190975 -4.70057,0.484198 -5.89154,-1.578633 -4.1198,-7.135699 10.19793,-15.440843 17.53638,-2.15645 5.43636,9.841168 -7.89826,28.686106 -24.15227,17.928403 -16.21233,-10.730116 -22.78189,-3.97107 -24.45562,2.219831 -1.67373,6.190901 5.1575,15.200347 14.10465,8.069209 -2.38195,4e-6 -4.3129,-1.93095 -4.31291,-4.312899 z"
       sodipodi:nodetypes="ssssscccssscssssscs" />
  </g>
</svg>
