<?xml version="1.0" encoding="UTF-8" standalone="no"?>
<!-- Created with Inkscape (http://www.inkscape.org/) -->

<svg
   width="800"
   height="800"
   viewBox="0 0 211.66666 211.66667"
   version="1.1"
   id="svg17616"
   inkscape:version="1.2.2 (732a01da63, 2022-12-09)"
   sodipodi:docname="logo2.svg"
   inkscape:export-filename="vscode-extension\revelry_16x16.png"
   inkscape:export-xdpi="1.92"
   inkscape:export-ydpi="1.92"
   xmlns:inkscape="http://www.inkscape.org/namespaces/inkscape"
   xmlns:sodipodi="http://sodipodi.sourceforge.net/DTD/sodipodi-0.dtd"
   xmlns="http://www.w3.org/2000/svg"
   xmlns:svg="http://www.w3.org/2000/svg">
  <sodipodi:namedview
     id="namedview17618"
     pagecolor="#505050"
     bordercolor="#eeeeee"
     borderopacity="1"
     inkscape:showpageshadow="0"
     inkscape:pageopacity="0"
     inkscape:pagecheckerboard="true"
     inkscape:deskcolor="#505050"
     inkscape:document-units="px"
     showgrid="false"
     showguides="false"
     inkscape:zoom="0.64693625"
     inkscape:cx="121.34117"
     inkscape:cy="484.5918"
     inkscape:window-width="2560"
     inkscape:window-height="1377"
     inkscape:window-x="-8"
     inkscape:window-y="-8"
     inkscape:window-maximized="1"
     inkscape:current-layer="g14913">
    <inkscape:grid
       type="axonomgrid"
       id="grid19243"
       units="px"
       spacingy="5.2916666"
       gridanglex="30"
       gridanglez="30"
       empspacing="2"
       originx="105.83333"
       originy="105.83333"
       enabled="true"
       visible="true" />
    <sodipodi:guide
       position="105.83333,211.66666"
       orientation="-1,0"
       id="guide22722"
       inkscape:locked="false"
       inkscape:label=""
       inkscape:color="rgb(0,134,229)" />
    <sodipodi:guide
       position="0,105.83333"
       orientation="0,1"
       id="guide29258"
       inkscape:locked="false"
       inkscape:label=""
       inkscape:color="rgb(0,134,229)" />
    <sodipodi:guide
       position="105.83333,174.625"
       orientation="0,-1"
       id="guide36028"
       inkscape:locked="false" />
    <sodipodi:guide
       position="165.40866,71.437502"
       orientation="0,-1"
       id="guide36030"
       inkscape:locked="false" />
    <sodipodi:guide
       position="46.258,71.437502"
       orientation="1,0"
       id="guide36034"
       inkscape:locked="false" />
  </sodipodi:namedview>
  <defs
     id="defs17613">
    <clipPath
       clipPathUnits="userSpaceOnUse"
       id="clipPath35854">
      <path
         d="M 0,210 H 210 V 0 H 0 Z"
         id="path35852" />
    </clipPath>
    <clipPath
       clipPathUnits="userSpaceOnUse"
       id="clipPath35862">
      <path
         d="m 4.5,205.5 h 201 V 4.5 H 4.5 Z"
         id="path35860" />
    </clipPath>
  </defs>
  <g
     inkscape:groupmode="layer"
     id="layer4"
     inkscape:label="Layer 3"
     style="display:inline">
    <rect
       style="display:none;fill:#ffffff;fill-opacity:1;stroke:none;stroke-width:1;stroke-linecap:round;stroke-linejoin:round;stroke-opacity:1"
       id="rect44924-0"
       width="211.66666"
       height="211.66666"
       x="0"
       y="0"
       sodipodi:insensitive="true" />
  </g>
  <g
     inkscape:label="Layer 1"
     inkscape:groupmode="layer"
     id="layer1"
     style="display:none">
    <path
       id="path17789"
       style="display:inline;fill:#505658;fill-opacity:1;stroke:#000000;stroke-width:1;stroke-linecap:round;stroke-linejoin:round;stroke-opacity:1"
       d="M 69.366308,6.4890096 A 105.83333,105.83333 0 0 0 0,105.83333 105.83333,105.83333 0 0 0 1.5926676,123.77901 47.625,47.625 0 0 1 46.258158,92.604166 a 47.625,47.625 0 0 1 47.625,47.625004 47.625,47.625 0 0 1 -47.625,47.625 47.625,47.625 0 0 1 -8.086328,-0.71882 105.83333,105.83333 0 0 0 67.6615,24.53131 105.83333,105.83333 0 0 0 67.66151,-24.53131 47.625,47.625 0 0 1 -8.08633,0.71882 47.625,47.625 0 0 1 -47.625,-47.625 47.625,47.625 0 0 1 47.625,-47.625004 47.625,47.625 0 0 1 44.67376,31.129364 105.83333,105.83333 0 0 0 1.58439,-17.9002 105.83333,105.83333 0 0 0 -69.28465,-99.3179655 47.625,47.625 0 0 1 11.07632,30.5263015 47.625,47.625 0 0 1 -47.625,47.625 47.625,47.625 0 0 1 -47.624997,-47.625 47.625,47.625 0 0 1 11.157975,-30.5526564 z" />
    <path
       id="path36149-2-1"
       style="display:inline;fill:#fdda0d;fill-opacity:1;stroke:#000000;stroke-linecap:round;stroke-linejoin:round;stroke-opacity:1"
       d="m 57.714786,141.55208 c 3.65314,-6.32742 11.74397,-8.49535 18.07138,-4.84221 21.88765,12.63684 -3.40858,56.65733 -43.276321,32.62345 C 2.975551,151.52886 9.495652,81.018245 69.171586,84.666662 128.69451,88.305715 135.7797,60.275446 130.73099,41.262993 125.68227,22.250527 93.718246,8.7947207 80.887876,41.459866 87.215292,37.806731 95.306119,39.974655 98.959254,46.30207 102.61239,52.62949 100.44446,60.72032 94.117041,64.37345 72.229393,77.01029 46.754642,33.092868 87.502465,10.58333 117.68873,-6.091887 175.49266,34.809992 142.49507,84.66666 c -32.91297,49.72883 -12.18064,69.87992 6.80898,75.01384 18.98964,5.13391 46.62472,-15.81984 24.75106,-43.26384 0,7.30627 -5.92289,13.22917 -13.22916,13.22917 -7.30627,0 -13.22917,-5.9229 -13.22917,-13.22917 0,-25.273681 50.77098,-25.37675 49.8909,21.16667 -0.65197,34.47968 -64.976,64.08841 -91.65435,10.58333 -26.609944,-53.367884 -54.427463,-45.48871 -68.368378,-31.61017 -13.940915,13.87855 -9.611974,48.28811 25.092054,43.06696 -6.32742,-3.65313 -8.49535,-11.74396 -4.84222,-18.07137 z"
       sodipodi:nodetypes="ssssscccssscssssscs" />
    <path
       id="path17789-2"
       style="display:inline;fill:#fff8ce;fill-opacity:1;stroke:#000000;stroke-width:1;stroke-linecap:round;stroke-linejoin:round;stroke-opacity:1"
       d="M 151.93594,48.778934 A 47.625,47.625 0 0 1 105.83333,84.666666 47.625,47.625 0 0 1 96.780138,83.73494 c -7.61921,1.200764 -16.73557,1.596474 -27.60865,0.931726 -15.397182,-0.94134 -27.246688,3.061638 -35.860343,9.814905 a 47.625,47.625 0 0 1 12.947013,-1.877405 47.625,47.625 0 0 1 45.069083,32.249714 c 4.81523,5.97923 9.680319,13.63441 14.506089,23.31279 6.85361,13.74533 16.19386,21.99411 26.29866,26.09556 a 47.625,47.625 0 0 1 -14.34848,-34.03306 47.625,47.625 0 0 1 11.70626,-31.16658 c 2.76958,-7.20387 6.98755,-15.303424 13.00541,-24.395924 8.49392,-12.833619 10.96012,-25.070108 9.44076,-35.887732 z" />
  </g>
  <g
     inkscape:label="Layer 1 copy 1"
     inkscape:groupmode="layer"
     id="g8161"
     style="display:none">
    <circle
       style="display:inline;fill:#505658;fill-opacity:1;stroke-width:1.85208;stroke-linecap:round;stroke-linejoin:round"
       id="path8215"
       cx="105.83333"
       cy="105.83333"
       r="105.83333" />
    <path
       id="path14089"
       style="display:none;fill:#788285;stroke-width:1.85208;stroke-linecap:round;stroke-linejoin:round"
       inkscape:transform-center-y="24.706081"
       transform="rotate(60,105.72106,105.72106)"
       d="M 105.72106,6.8967285 191.30544,155.13323 H 20.136677 Z" />
    <path
       id="path14089-9"
       style="display:none;fill:#788285;stroke-width:1.85208;stroke-linecap:round;stroke-linejoin:round"
       inkscape:transform-center-y="24.706081"
       d="m 191.30544,56.308894 c 0,0 -43.41197,40.168648 -57.9758,65.399436 -14.55042,25.20754 -27.60858,82.83706 -27.60858,82.83706 0,0 -16.523342,-59.27283 -31.966754,-85.48289 C 59.787197,95.357964 20.136674,56.308895 20.136674,56.308895 c 0,0 56.523139,17.782055 85.696656,17.774435 29.10023,-0.0076 85.47211,-17.774436 85.47211,-17.774436 z"
       sodipodi:nodetypes="cacacac" />
    <path
       id="path14089-9-3"
       style="display:inline;fill:#788285;stroke-width:1.85208;stroke-linecap:round;stroke-linejoin:round"
       inkscape:transform-center-y="24.706081"
       d="m 191.30544,56.308894 c 0,0 -16.0106,56.218066 -30.4795,81.274436 -14.45538,25.03296 -55.10488,66.96206 -55.10488,66.96206 0,0 -40.443499,-41.97325 -54.880342,-66.96206 C 36.353402,112.50715 20.136674,56.308895 20.136674,56.308895 c 0,0 56.753737,-13.981603 85.696656,-13.975564 28.86905,0.006 85.47211,13.975563 85.47211,13.975563 z"
       sodipodi:nodetypes="cacacac" />
    <path
       id="path8157"
       style="display:inline;fill:#fdda0d;fill-opacity:1;stroke:none;stroke-linecap:round;stroke-linejoin:round;stroke-opacity:1"
       d="m 57.714784,141.55208 c 3.65314,-6.32742 11.743971,-8.49535 18.071386,-4.84221 21.887649,12.63684 -3.40858,56.65733 -43.276328,32.62345 C 2.975552,151.52886 9.4956514,81.018245 69.171587,84.66666 128.69451,88.305714 135.7797,60.275445 130.73099,41.262993 125.68227,22.250526 93.718246,8.7947207 80.887876,41.459866 c 6.327416,-3.653135 14.418244,-1.485211 18.071379,4.842203 3.653135,6.327421 1.485205,14.41825 -4.842213,18.07138 C 72.229396,77.010288 46.754643,33.092868 87.502466,10.58333 117.68873,-6.0918866 175.49266,34.809991 142.49507,84.66666 c -32.91297,49.72883 -12.18064,69.87992 6.80898,75.01384 18.98964,5.13392 46.62472,-15.81984 24.75106,-43.26384 0,7.30627 -5.92289,13.22917 -13.22916,13.22917 -7.30627,0 -13.22917,-5.9229 -13.22917,-13.22917 0,-25.273683 50.77098,-25.376747 49.8909,21.16667 -0.65197,34.47968 -64.976,64.08841 -91.65434,10.58333 C 79.223388,94.798774 51.405865,102.67795 37.464953,116.55649 23.524039,130.43504 27.852981,164.8446 62.557008,159.62345 56.229583,155.97032 54.06166,147.87949 57.714784,141.55208 Z"
       sodipodi:nodetypes="ssssscccssscssssscs" />
  </g>
  <g
     inkscape:label="Layer 1 copy 1 copy"
     inkscape:groupmode="layer"
     id="g14913"
     style="display:inline">
    <circle
       style="display:inline;fill:#505658;fill-opacity:1;stroke-width:1.85208;stroke-linecap:round;stroke-linejoin:round"
       id="circle14903"
       cx="38.737686"
       cy="144.57101"
       r="105.83333"
       transform="rotate(-30)" />
    <path
       id="path14905"
       style="display:none;fill:#788285;stroke-width:1.85208;stroke-linecap:round;stroke-linejoin:round"
       inkscape:transform-center-y="24.706081"
       transform="rotate(60,105.72106,105.72106)"
       d="M 105.72106,6.8967285 191.30544,155.13323 H 20.136677 Z" />
    <path
       id="path14907"
       style="display:none;fill:#788285;stroke-width:1.85208;stroke-linecap:round;stroke-linejoin:round"
       inkscape:transform-center-y="24.706081"
       d="m 191.30544,56.308894 c 0,0 -43.41197,40.168648 -57.9758,65.399436 -14.55042,25.20754 -27.60858,82.83706 -27.60858,82.83706 0,0 -16.523342,-59.27283 -31.966754,-85.48289 C 59.787197,95.357964 20.136674,56.308895 20.136674,56.308895 c 0,0 56.523139,17.782055 85.696656,17.774435 29.10023,-0.0076 85.47211,-17.774436 85.47211,-17.774436 z"
       sodipodi:nodetypes="cacacac" />
    <path
       id="path14909"
       style="display:inline;fill:#788285;stroke-width:1.85208;stroke-linecap:round;stroke-linejoin:round"
       inkscape:transform-center-y="6.0515962"
       d="m 155.09213,20.207854 c 0,0 14.24345,56.691574 14.2412,85.625476 -0.002,28.90687 -14.2412,85.54329 -14.2412,85.54329 0,0 -56.011721,-16.12816 -81.008798,-30.55068 -25.084474,-14.47295 -67.2277,-55.0337 -67.2277,-55.0337 0,0 42.159377,-40.485294 67.227699,-54.951523 C 99.087662,36.411388 155.09213,20.207854 155.09213,20.207854 Z"
       sodipodi:nodetypes="cacacac"
       inkscape:transform-center-x="14.091593" />
    <path
       id="path14911"
       style="display:inline;fill:#fdda0d;fill-opacity:1;stroke:none;stroke-linecap:round;stroke-linejoin:round;stroke-opacity:1"
       d="m 82.020822,160.82595 c 2e-6,-7.30628 5.922903,-13.22918 13.229175,-13.22917 25.273683,0 25.376743,50.77097 -21.166675,49.8909 C 39.603647,196.83571 9.9949111,132.51167 63.499995,105.83333 116.86789,79.223378 108.98871,51.405858 95.110168,37.464947 81.231615,23.524027 46.822055,27.85297 52.043202,62.557001 c 3.653135,-6.327416 11.74396,-8.495353 18.071375,-4.842219 6.327418,3.65314 8.49535,11.743968 4.84221,18.071381 C 62.319949,97.673809 18.299456,72.377584 42.333337,32.509841 60.1378,2.975548 130.64841,9.4956481 126.99999,69.171585 c -3.63905,59.522915 24.39122,66.608105 43.40367,61.559405 19.01247,-5.04872 32.46828,-37.012747 -0.19687,-49.843118 3.65314,6.327415 1.48521,14.418242 -4.8422,18.071377 -6.32742,3.653131 -14.41825,1.485201 -18.07139,-4.842212 -12.63684,-21.887652 31.28059,-47.362398 53.79013,-6.614577 16.67521,30.18626 -24.22667,87.99019 -74.08333,54.9926 -49.728833,-32.91297 -69.879927,-12.18064 -75.013841,6.80899 -5.13391,18.98963 15.819843,46.62471 43.263837,24.75105 -7.306275,1e-5 -13.229167,-5.92289 -13.229174,-13.22915 z"
       sodipodi:nodetypes="ssssscccssscssssscs" />
  </g>
  <g
     inkscape:label="Layer 1 copy"
     inkscape:groupmode="layer"
     id="g45299"
     style="display:none">
    <rect
       style="display:none;fill:#ffffff;fill-opacity:1;stroke:none;stroke-width:1;stroke-linecap:round;stroke-linejoin:round;stroke-opacity:1"
       id="rect44924"
       width="206.37498"
       height="206.37498"
       x="-64.615173"
       y="41.339211"
       transform="rotate(-30)" />
    <path
       id="path45293"
       style="display:inline;fill:#505658;fill-opacity:1;stroke:#ffffff;stroke-width:2.64583;stroke-linecap:round;stroke-linejoin:round;stroke-dasharray:none;stroke-opacity:1"
       d="M 26.445775,39.771476 A 103.1875,103.1875 0 0 0 16.304976,157.4714 a 103.1875,103.1875 0 0 0 10.093323,14.37644 46.434375,46.434375 45 0 1 22.516677,-48.09767 46.434375,46.434375 45 0 1 63.430544,16.99616 46.434375,46.434375 45 0 1 -16.996167,63.43054 46.434375,46.434375 45 0 1 -7.178317,3.33513 103.1875,103.1875 0 0 0 69.090684,-12.27137 103.1875,103.1875 0 0 0 45.17265,-53.6986 46.434375,46.434375 45 0 1 -6.47746,4.54903 46.434375,46.434375 45 0 1 -63.43054,-16.99615 46.434375,46.434375 45 0 1 16.99616,-63.430545 46.434375,46.434375 45 0 1 52.89696,4.506397 A 103.1875,103.1875 0 0 0 195.03097,54.283899 103.1875,103.1875 0 0 0 88.111246,4.1985723 46.434375,46.434375 45 0 1 112.34538,24.574505 46.434375,46.434375 45 0 1 95.349225,88.00504 46.434375,46.434375 45 0 1 31.918684,71.008881 46.434375,46.434375 45 0 1 26.445775,39.771476 Z" />
    <path
       id="path45295"
       style="display:inline;fill:#fdda0d;fill-opacity:1;stroke:#000000;stroke-width:2.64583;stroke-linecap:round;stroke-linejoin:round;stroke-dasharray:none;stroke-opacity:1"
       d="m 82.450771,159.49544 c 4e-6,-7.12362 5.774831,-12.89844 12.898442,-12.89843 24.641837,0 24.742327,49.5017 -20.637504,48.64362 C 41.094026,194.60497 12.225508,131.88903 64.392964,105.87764 116.42666,79.932936 108.74446,52.810854 95.212883,39.218468 81.681295,25.62607 48.131973,29.846791 53.222591,63.683221 c 3.561806,-6.16923 11.45036,-8.282969 17.619589,-4.721162 6.169238,3.561807 8.282974,11.450366 4.721156,17.619596 C 63.242418,97.922112 20.322437,73.25829 43.755471,34.387241 61.114826,5.5913012 129.86267,11.948401 126.30546,70.132439 c -3.54807,58.034841 23.78144,64.942901 42.31859,60.020421 18.53715,-4.92251 31.65656,-36.087429 -0.19196,-48.59704 3.56181,6.169227 1.44809,14.057782 -4.72115,17.619592 -6.16922,3.561808 -14.05779,1.448068 -17.61959,-4.721157 -12.32092,-21.34046 30.49856,-46.178339 52.44536,-6.449211 16.25835,29.431616 -23.62098,85.790436 -72.23124,53.617786 -48.485614,-32.09014 -68.132927,-11.87612 -73.138498,6.63876 -5.005561,18.5149 15.424346,45.4591 42.182247,24.13229 -7.123618,0 -12.898444,-5.77483 -12.898448,-12.89844 z"
       sodipodi:nodetypes="ssssscccssscssssscs" />
    <path
       id="path45297"
       style="display:inline;fill:#fff8ce;fill-opacity:1;stroke:#000000;stroke-width:2.64583;stroke-linecap:round;stroke-linejoin:round;stroke-dasharray:none;stroke-opacity:1"
       d="M 116.78183,35.227324 A 46.434375,46.434375 45 0 1 95.349225,88.00504 46.434375,46.434375 45 0 1 87.250711,91.631751 c -5.848092,4.728258 -13.352809,9.506609 -22.857827,14.245939 -13.459897,6.71129 -21.513869,15.86793 -25.494803,25.76938 a 46.434375,46.434375 45 0 1 10.016895,-7.8969 46.434375,46.434375 45 0 1 53.776944,5.25967 c 6.98072,2.70128 14.82059,6.79339 23.61356,12.613 12.48786,8.26508 24.39581,10.67677 34.9275,9.21384 a 46.434375,46.434375 45 0 1 -28.70661,-21.74177 46.434375,46.434375 45 0 1 -5.30923,-32.023069 c -1.17332,-7.432938 -1.56031,-16.328268 -0.91158,-26.939451 0.91566,-14.977169 -2.96723,-26.511623 -9.52373,-34.905066 z" />
  </g>
  <g
     inkscape:label="Layer 1 copy copy"
     inkscape:groupmode="layer"
     id="g14414"
     style="display:none">
    <rect
       style="display:none;fill:#ffffff;fill-opacity:1;stroke:none;stroke-width:1;stroke-linecap:round;stroke-linejoin:round;stroke-opacity:1"
       id="rect14406"
       width="206.37498"
       height="206.37498"
       x="-64.615173"
       y="41.339211"
       transform="rotate(-30)" />
    <circle
       style="display:inline;fill:#788285;fill-opacity:1;stroke:#788285;stroke-width:1.80494;stroke-linecap:round;stroke-linejoin:round;stroke-opacity:1"
       id="path14537"
       cx="105.83333"
       cy="105.83333"
       r="103.13953" />
    <path
       id="path14408"
       style="display:inline;fill:#505658;fill-opacity:1;stroke:none;stroke-width:2.64583;stroke-linecap:round;stroke-linejoin:round;stroke-dasharray:none;stroke-opacity:1"
       d="M 26.445775,39.771476 A 103.1875,103.1875 0 0 0 16.304976,157.4714 a 103.1875,103.1875 0 0 0 10.093323,14.37644 46.434375,46.434375 45 0 1 22.516677,-48.09767 46.434375,46.434375 45 0 1 63.430544,16.99616 46.434375,46.434375 45 0 1 -16.996167,63.43054 46.434375,46.434375 45 0 1 -7.178317,3.33513 103.1875,103.1875 0 0 0 69.090684,-12.27137 103.1875,103.1875 0 0 0 45.17265,-53.6986 46.434375,46.434375 45 0 1 -6.47746,4.54903 46.434375,46.434375 45 0 1 -63.43054,-16.99615 46.434375,46.434375 45 0 1 16.99616,-63.430545 46.434375,46.434375 45 0 1 52.89696,4.506397 A 103.1875,103.1875 0 0 0 195.03097,54.283899 103.1875,103.1875 0 0 0 88.111246,4.1985723 46.434375,46.434375 45 0 1 112.34538,24.574505 46.434375,46.434375 45 0 1 95.349225,88.00504 46.434375,46.434375 45 0 1 31.918684,71.008881 46.434375,46.434375 45 0 1 26.445775,39.771476 Z" />
    <path
       id="path14410"
       style="display:inline;fill:#fdda0d;fill-opacity:1;stroke:none;stroke-width:2.64583;stroke-linecap:round;stroke-linejoin:round;stroke-dasharray:none;stroke-opacity:1"
       d="m 82.450771,159.49544 c 4e-6,-7.12362 5.774831,-12.89844 12.898442,-12.89843 24.641837,0 24.742327,49.5017 -20.637504,48.64362 C 41.094026,194.60497 12.225508,131.88903 64.392964,105.87764 116.42666,79.932936 108.74446,52.810854 95.212883,39.218468 81.681295,25.62607 48.131973,29.846791 53.222591,63.683221 c 3.561806,-6.16923 11.45036,-8.282969 17.619589,-4.721162 6.169238,3.561807 8.282974,11.450366 4.721156,17.619596 C 63.242418,97.922112 20.322437,73.25829 43.755471,34.387241 61.114826,5.5913012 129.86267,11.948401 126.30546,70.132439 c -3.54807,58.034841 23.78144,64.942901 42.31859,60.020421 18.53715,-4.92251 31.65656,-36.087429 -0.19196,-48.59704 3.56181,6.169227 1.44809,14.057782 -4.72115,17.619592 -6.16922,3.561808 -14.05779,1.448068 -17.61959,-4.721157 -12.32092,-21.34046 30.49856,-46.178339 52.44536,-6.449211 16.25835,29.431616 -23.62098,85.790436 -72.23124,53.617786 -48.485614,-32.09014 -68.132927,-11.87612 -73.138498,6.63876 -5.005561,18.5149 15.424346,45.4591 42.182247,24.13229 -7.123618,0 -12.898444,-5.77483 -12.898448,-12.89844 z"
       sodipodi:nodetypes="ssssscccssscssssscs" />
  </g>
</svg>
