<?xml version="1.0" encoding="UTF-8" standalone="no"?>
<!-- Created with Inkscape (http://www.inkscape.org/) -->

<svg
   width="2000"
   height="800"
   viewBox="0 0 529.16665 211.66667"
   version="1.1"
   id="svg274"
   inkscape:version="1.2.2 (732a01da63, 2022-12-09)"
   sodipodi:docname="logo.svg"
   xmlns:inkscape="http://www.inkscape.org/namespaces/inkscape"
   xmlns:sodipodi="http://sodipodi.sourceforge.net/DTD/sodipodi-0.dtd"
   xmlns="http://www.w3.org/2000/svg"
   xmlns:svg="http://www.w3.org/2000/svg">
  <sodipodi:namedview
     id="namedview276"
     pagecolor="#505050"
     bordercolor="#eeeeee"
     borderopacity="1"
     inkscape:showpageshadow="0"
     inkscape:pageopacity="0"
     inkscape:pagecheckerboard="true"
     inkscape:deskcolor="#505050"
     inkscape:document-units="px"
     showgrid="false"
     showguides="true"
     inkscape:zoom="0.70710678"
     inkscape:cx="795.49513"
     inkscape:cy="113.84419"
     inkscape:window-width="2560"
     inkscape:window-height="1377"
     inkscape:window-x="-8"
     inkscape:window-y="-8"
     inkscape:window-maximized="1"
     inkscape:current-layer="layer2"
     inkscape:lockguides="true">
    <inkscape:grid
       type="xygrid"
       id="grid13644"
       originx="0"
       originy="0"
       empspacing="10" />
  </sodipodi:namedview>
  <defs
     id="defs271">
    <inkscape:path-effect
       effect="fillet_chamfer"
       id="path-effect13905"
       is_visible="true"
       lpeversion="1"
       nodesatellites_param="F,0,0,1,0,3,0,1 @ F,0,0,1,0,3,0,1 @ F,0,0,1,0,3,0,1 @ F,0,0,1,0,3,0,1"
       unit="px"
       method="auto"
       mode="F"
       radius="3"
       chamfer_steps="1"
       flexible="false"
       use_knot_distance="false"
       apply_no_radius="true"
       apply_with_radius="true"
       only_selected="false"
       hide_knots="false" />
    <inkscape:path-effect
       effect="fillet_chamfer"
       id="path-effect13652"
       is_visible="true"
       lpeversion="1"
       nodesatellites_param="F,0,0,1,0,2,0,1 @ F,0,0,1,0,2,0,1 @ F,0,0,1,0,2,0,1 @ F,0,0,1,0,2,0,1"
       unit="px"
       method="auto"
       mode="F"
       radius="2"
       chamfer_steps="1"
       flexible="false"
       use_knot_distance="true"
       apply_no_radius="true"
       apply_with_radius="true"
       only_selected="false"
       hide_knots="false" />
    <inkscape:path-effect
       effect="fillet_chamfer"
       id="path-effect13611"
       is_visible="true"
       lpeversion="1"
       nodesatellites_param="F,0,0,1,0,2.6458333,0,1 @ F,0,0,1,0,2.6458333,0,1 @ F,0,0,1,0,2.6458333,0,1 @ F,0,0,1,0,2.6458333,0,1"
       unit="px"
       method="auto"
       mode="F"
       radius="10"
       chamfer_steps="1"
       flexible="false"
       use_knot_distance="true"
       apply_no_radius="true"
       apply_with_radius="true"
       only_selected="false"
       hide_knots="false" />
    <inkscape:path-effect
       effect="fillet_chamfer"
       id="path-effect9768"
       is_visible="true"
       lpeversion="1"
       nodesatellites_param="F,0,0,1,0,2.6458333,0,1 @ F,0,0,1,0,2.6458333,0,1 @ F,0,0,1,0,2.6458333,0,1 @ F,0,0,1,0,2.6458333,0,1"
       unit="px"
       method="auto"
       mode="F"
       radius="10"
       chamfer_steps="1"
       flexible="false"
       use_knot_distance="true"
       apply_no_radius="true"
       apply_with_radius="true"
       only_selected="false"
       hide_knots="false" />
    <inkscape:path-effect
       effect="fillet_chamfer"
       id="path-effect9763"
       is_visible="true"
       lpeversion="1"
       nodesatellites_param="F,0,0,1,0,0,0,1 @ F,0,0,1,0,0,0,1 @ F,0,0,1,0,0,0,1 @ F,0,0,1,0,0,0,1"
       unit="px"
       method="auto"
       mode="F"
       radius="10"
       chamfer_steps="1"
       flexible="false"
       use_knot_distance="true"
       apply_no_radius="true"
       apply_with_radius="true"
       only_selected="false"
       hide_knots="false" />
    <inkscape:path-effect
       effect="fillet_chamfer"
       id="path-effect7911"
       is_visible="true"
       lpeversion="1"
       nodesatellites_param="F,0,0,1,0,2.6458333,0,1 @ F,0,0,1,0,2.6458333,0,1 @ F,0,0,1,0,2.6458333,0,1 @ F,0,0,1,0,2.6458333,0,1"
       unit="px"
       method="auto"
       mode="F"
       radius="10"
       chamfer_steps="1"
       flexible="false"
       use_knot_distance="true"
       apply_no_radius="true"
       apply_with_radius="true"
       only_selected="false"
       hide_knots="false" />
    <inkscape:path-effect
       effect="fillet_chamfer"
       id="path-effect7909"
       is_visible="true"
       lpeversion="1"
       nodesatellites_param="F,0,0,1,0,2.6458333,0,1 @ F,0,0,1,0,2.6458333,0,1 @ F,0,0,1,0,2.6458333,0,1 @ F,0,0,1,0,2.6458333,0,1"
       unit="px"
       method="auto"
       mode="F"
       radius="10"
       chamfer_steps="1"
       flexible="false"
       use_knot_distance="true"
       apply_no_radius="true"
       apply_with_radius="true"
       only_selected="false"
       hide_knots="false" />
    <inkscape:path-effect
       effect="fillet_chamfer"
       id="path-effect13652-1"
       is_visible="true"
       lpeversion="1"
       nodesatellites_param="F,0,0,1,0,2,0,1 @ F,0,0,1,0,2,0,1 @ F,0,0,1,0,2,0,1 @ F,0,0,1,0,2,0,1"
       unit="px"
       method="auto"
       mode="F"
       radius="2"
       chamfer_steps="1"
       flexible="false"
       use_knot_distance="true"
       apply_no_radius="true"
       apply_with_radius="true"
       only_selected="false"
       hide_knots="false" />
  </defs>
  <g
     inkscape:label="Layer 1"
     inkscape:groupmode="layer"
     id="layer1">
    <rect
       style="fill:#ffffff;fill-opacity:1;stroke:none;stroke-width:0.264999;stroke-linecap:round;stroke-linejoin:round;stroke-dasharray:none;stroke-opacity:1"
       id="rect5755"
       width="529.16663"
       height="211.66666"
       x="0"
       y="0"
       sodipodi:insensitive="true" />
    <path
       id="rect9766-2"
       d="M 514.77317,254.09929 H 528.908 a 2.6458333,2.6458333 0 0 1 2.64584,2.64583 v 15.36177 a 2.6458333,2.6458333 0 0 1 -2.64584,2.64584 h -14.13483 a 2.6458333,2.6458333 0 0 1 -2.64583,-2.64584 v -15.36177 a 2.6458333,2.6458333 0 0 1 2.64583,-2.64583 z"
       style="display:inline;fill:#fdda0d;fill-opacity:1;stroke:none;stroke-width:1;stroke-linecap:round;stroke-linejoin:round;stroke-dasharray:none;stroke-opacity:1" />
    <path
       id="rect9766"
       d="M 514.77317,254.09929 H 528.908 c 1.46125,0 2.64584,1.18458 2.64584,2.64583 0.0151,15.30781 -19.4265,7.68088 -16.78067,18.00761 -1.46126,0 -2.64584,-1.18458 -2.64583,-2.64584 v -15.36177 c 0,-1.46125 1.18458,-2.64583 2.64583,-2.64583 z"
       style="display:inline;fill:#505658;fill-opacity:1;stroke:none;stroke-width:1;stroke-linecap:round;stroke-linejoin:round;stroke-dasharray:none;stroke-opacity:1"
       sodipodi:nodetypes="sccccss" />
    <path
       style="fill:#fdda0d;fill-opacity:1;stroke:none;stroke-width:0.221027;stroke-linecap:round;stroke-linejoin:round;stroke-dasharray:none;stroke-opacity:1"
       id="rect4069-9"
       width="62.169952"
       height="14.621"
       x="468.06226"
       y="228.0999"
       inkscape:path-effect="#path-effect7911"
       d="m 470.70809,228.0999 h 56.87828 a 2.6458333,2.6458333 45 0 1 2.64584,2.64583 v 9.32934 a 2.6458333,2.6458333 135 0 1 -2.64584,2.64583 l -56.87828,0 a 2.6458333,2.6458333 45 0 1 -2.64583,-2.64583 l 0,-9.32934 a 2.6458333,2.6458333 135 0 1 2.64583,-2.64583 z"
       sodipodi:type="rect" />
    <path
       id="rect4069"
       style="fill:#505658;fill-opacity:1;stroke-width:0.264999;stroke-linecap:round;stroke-linejoin:round"
       d="m 450.56587,228.09989 h 41.87712 a 1.9423271,1.9423271 53.717314 0 1 1.85309,2.52428 l -3.00617,9.57244 a 3.6041478,3.6041478 143.71731 0 1 -3.43857,2.52428 h -37.28547 a 2.6458333,2.6458333 45 0 1 -2.64583,-2.64583 l 0,-9.32934 a 2.6458333,2.6458333 135 0 1 2.64583,-2.64583 z"
       sodipodi:nodetypes="ccccc"
       inkscape:path-effect="#path-effect7909"
       inkscape:original-d="m 447.92004,228.09989 h 47.16878 l -4.59165,14.621 h -42.57713 z" />
    <text
       xml:space="preserve"
       style="font-size:11.2889px;line-height:1.25;font-family:'Open Sans';-inkscape-font-specification:'Open Sans, Normal';letter-spacing:0px;word-spacing:0px;fill:#505658;fill-opacity:1;stroke:#000000;stroke-width:0.265;stroke-dasharray:none;stroke-opacity:1"
       x="492.14438"
       y="238.99925"
       id="text449"><tspan
         sodipodi:role="line"
         id="tspan447"
         style="font-style:normal;font-variant:normal;font-weight:normal;font-stretch:normal;font-size:11.2889px;font-family:Philosopher;-inkscape-font-specification:Philosopher;fill:#505658;fill-opacity:1;stroke:none;stroke-width:0.265;stroke-dasharray:none;stroke-opacity:1"
         x="492.14438"
         y="238.99925"> <tspan
   style="font-style:italic;font-variant:normal;font-weight:normal;font-stretch:normal;font-size:11.2889px;font-family:Philosopher;-inkscape-font-specification:'Philosopher Italic';fill:#505658;fill-opacity:1"
   id="tspan1835">Engine</tspan></tspan></text>
    <text
       xml:space="preserve"
       style="font-size:12.7px;line-height:1.25;font-family:'Open Sans';-inkscape-font-specification:'Open Sans, Normal';letter-spacing:0px;word-spacing:0px;fill:#fdda0d;fill-opacity:1;stroke-width:0.264583"
       x="450.32895"
       y="238.8723"
       id="text7110"><tspan
         sodipodi:role="line"
         id="tspan7108"
         style="font-style:normal;font-variant:normal;font-weight:normal;font-stretch:normal;font-family:Philosopher;-inkscape-font-specification:Philosopher;fill:#fdda0d;fill-opacity:1;stroke-width:0.264583"
         x="450.32895"
         y="238.8723">Revelry</tspan></text>
    <text
       xml:space="preserve"
       style="font-size:15.0334px;line-height:1.25;font-family:'Open Sans';-inkscape-font-specification:'Open Sans, Normal';letter-spacing:0px;word-spacing:0px;fill:#fdda0d;fill-opacity:1;stroke-width:0.264579"
       x="515.29761"
       y="265.6062"
       id="text8092"><tspan
         sodipodi:role="line"
         id="tspan8090"
         style="font-style:italic;font-variant:normal;font-weight:normal;font-stretch:normal;font-family:Philosopher;-inkscape-font-specification:'Philosopher Italic';fill:#fdda0d;fill-opacity:1;stroke-width:0.264579"
         x="515.29761"
         y="265.6062">R</tspan></text>
    <text
       xml:space="preserve"
       style="font-size:4.16944px;line-height:1.25;font-family:'Open Sans';-inkscape-font-specification:'Open Sans, Normal';letter-spacing:0px;word-spacing:0px;fill:#505658;fill-opacity:1;stroke:none;stroke-width:0.264584;stroke-opacity:1"
       x="517.66101"
       y="272.39023"
       id="text8165"><tspan
         sodipodi:role="line"
         id="tspan8163"
         style="font-style:italic;font-variant:normal;font-weight:normal;font-stretch:normal;font-family:Philosopher;-inkscape-font-specification:'Philosopher Italic';fill:#505658;fill-opacity:1;stroke:none;stroke-width:0.264584;stroke-opacity:1"
         x="517.66101"
         y="272.39023">Engine</tspan></text>
    <path
       id="rect13609"
       d="m 549.85799,228.24346 h 19.70834 a 2.6458333,2.6458333 0 0 1 2.64583,2.64583 v 19.70833 a 2.6458333,2.6458333 0 0 1 -2.64583,2.64584 h -19.70834 a 2.6458333,2.6458333 0 0 1 -2.64583,-2.64584 v -19.70833 a 2.6458333,2.6458333 0 0 1 2.64583,-2.64583 z"
       style="fill:#505658;fill-opacity:1;stroke:none;stroke-width:1;stroke-linecap:round;stroke-linejoin:round;stroke-dasharray:none;stroke-opacity:1" />
    <path
       id="rect13609-5"
       d="m 572.21216,230.88929 v 19.70833 c 0,1.46125 -1.18458,2.64584 -2.64583,2.64584 h -19.70834 c -1.46125,0 -2.64583,-1.18459 -2.64583,-2.64584 12.62839,-0.71571 15.84794,-19.91282 25,-19.70833 z"
       style="fill:#fdda0d;fill-opacity:1;stroke:none;stroke-width:1;stroke-linecap:round;stroke-linejoin:round;stroke-dasharray:none;stroke-opacity:1"
       sodipodi:nodetypes="ccsscc" />
    <path
       style="fill:#505658;fill-opacity:1;stroke:none;stroke-width:1;stroke-linecap:round;stroke-linejoin:round;stroke-dasharray:none;stroke-opacity:1"
       id="rect13650"
       width="23.8125"
       height="23.8125"
       x="546.50262"
       y="257.14761"
       inkscape:path-effect="#path-effect13652"
       d="m 548.50262,257.14761 h 19.8125 a 2,2 45 0 1 2,2 v 19.8125 a 2,2 135 0 1 -2,2 h -19.8125 a 2,2 45 0 1 -2,-2 v -19.8125 a 2,2 135 0 1 2,-2 z"
       sodipodi:type="rect" />
    <path
       id="rect13650-7"
       d="M 26.458333,4.6458323 V 24.458332 c 0,1.104569 -0.895431,2 -2,2 H 4.6458333 c -1.1045695,0 -2,-0.895431 -2,-2 C 15.801704,20.912507 15.875,7.9374999 26.458333,4.6458323 Z"
       style="display:none;fill:#fdda0d;fill-opacity:1;stroke:none;stroke-width:1;stroke-linecap:round;stroke-linejoin:round;stroke-dasharray:none;stroke-opacity:1"
       sodipodi:nodetypes="cssscc" />
    <path
       id="rect13650-7-1"
       style="display:inline;fill:#fdda0d;fill-opacity:1;stroke:none;stroke-width:1;stroke-linecap:round;stroke-linejoin:round;stroke-dasharray:none;stroke-opacity:1"
       d="m 570.31514,259.1475 c -2.3224,0.72232 -4.13834,1.91119 -5.69784,3.36413 0.69157,0.82713 1.03766,1.9558 1.03766,3.38584 0,2.78245 -1.67358,4.5605 -5.02088,5.33456 l 3.29489,5.49165 c 0.77406,1.29708 1.46449,2.20705 2.07119,2.73007 0.62762,0.5021 1.34934,0.79482 2.16524,0.8785 v 0.62787 h 0.14986 c 1.10457,0 1.99988,-0.89531 1.99988,-1.99988 z m -5.78983,21.81262 c -0.41248,-0.15916 -0.79949,-0.37857 -1.16117,-0.65888 -0.8159,-0.66946 -1.72587,-1.86206 -2.73006,-3.57756 l -3.12384,-5.31027 c -0.6864,0.8521 -1.41429,1.68385 -2.21124,2.47272 v 7.07399 z m -9.22631,-7.07399 v -2.497 h 2.19677 l 0.0145,0.0243 c 0.31828,-0.39513 0.62679,-0.79479 0.93017,-1.19631 -0.27056,0.0483 -0.53308,0.0734 -0.78754,0.0734 -0.73223,0 -1.51704,-0.10447 -2.35387,-0.31368 v -8.31577 c 0.83683,-0.20921 1.62164,-0.31419 2.35387,-0.31419 0.64854,0 1.34905,0.16756 2.10219,0.50229 0.77407,0.31381 1.4226,0.81599 1.94562,1.50637 0.35447,0.43627 0.59277,0.94851 0.71624,1.53582 0.68923,-0.84337 1.41212,-1.64531 2.20038,-2.3797 -0.37075,-0.44341 -0.84076,-0.80059 -1.41025,-1.07073 -1.61089,-0.79499 -3.41014,-1.19218 -5.39761,-1.19218 h -8.15867 v 0.62735 h 0.62735 c 0.87867,0 1.46463,0.26195 1.75752,0.78497 0.29289,0.50209 0.43925,1.28639 0.43925,2.35334 v 12.22199 c 1.04303,-0.71619 1.97345,-1.50821 2.82411,-2.35024 z m -2.82411,2.35024 c -1.65872,1.13896 -3.6024,2.08514 -5.97225,2.72387 0,1.10457 0.89531,1.99988 1.99988,1.99988 h 3.97237 z m 9.94202,-11.34504 c -1.3727,1.6797 -2.61455,3.52326 -3.9765,5.32577 0.41902,-0.0748 0.85702,-0.20671 1.31465,-0.39739 0.77407,-0.31381 1.4226,-0.80538 1.94562,-1.47484 0.54394,-0.66946 0.81597,-1.48505 0.81597,-2.4474 0,-0.35707 -0.0337,-0.69222 -0.0997,-1.00614 z"
       sodipodi:nodetypes="ccscccccsscccccccccccccsccscccccsccscsccccsccccccscc" />
    <text
       xml:space="preserve"
       style="font-size:31.381px;line-height:1.25;font-family:'Open Sans';-inkscape-font-specification:'Open Sans, Normal';letter-spacing:0px;word-spacing:0px;display:none;fill:#000000;fill-opacity:0.261438;stroke-width:0.264583"
       x="5.2916665"
       y="26.458334"
       id="text13638"><tspan
         sodipodi:role="line"
         id="tspan13636"
         style="font-style:normal;font-variant:normal;font-weight:normal;font-stretch:normal;font-size:31.381px;font-family:Philosopher;-inkscape-font-specification:Philosopher;fill:#000000;fill-opacity:0.261438;stroke-width:0.264583"
         x="0"
         y="0">R</tspan></text>
    <g
       aria-label="R"
       id="text13638-9"
       style="font-size:31.381px;line-height:1.25;font-family:'Open Sans';-inkscape-font-specification:'Open Sans, Normal';letter-spacing:0px;word-spacing:0px;display:none;fill-opacity:0.261438;stroke-width:0.264583">
      <path
         d="m 22.425693,26.772144 q -1.663193,0 -2.918433,-0.972811 -1.223859,-1.004192 -2.730147,-3.577434 l -3.1381,-5.33477 h -2.19667 v 9.571205 H 8.6180526 V 9.5125937 q 0,-1.600431 -0.439334,-2.353575 Q 7.7393845,6.3744936 6.4213825,6.3744936 h -0.62762 v -0.62762 h 8.1590605 q 2.981195,0 5.397532,1.192478 2.447718,1.1610971 2.447718,4.4561024 0,4.173673 -5.02096,5.33477 l 3.295005,5.491675 q 1.161097,1.945622 2.071146,2.730147 0.94143,0.753144 2.165289,0.878668 v 0.62762 q -0.282429,0.125524 -0.815906,0.219667 -0.502096,0.09414 -1.066954,0.09414 z m -8.629775,-10.98335 q 0.972811,0 2.102527,-0.470715 1.161097,-0.470715 1.945622,-1.474907 0.815906,-1.004192 0.815906,-2.447718 0,-1.5376693 -0.815906,-2.5418613 -0.784525,-1.035573 -1.945622,-1.506288 -1.129716,-0.5020961 -2.102527,-0.5020961 -1.098335,0 -2.353575,0.3138101 v 8.3159653 q 1.25524,0.31381 2.353575,0.31381 z"
         style="font-family:Philosopher;-inkscape-font-specification:Philosopher"
         id="path13813" />
    </g>
    <g
       aria-label="R"
       id="text13638-7"
       style="font-size:31.381px;line-height:1.25;font-family:'Open Sans';-inkscape-font-specification:'Open Sans, Normal';letter-spacing:0px;word-spacing:0px;fill-opacity:0.261438;stroke-width:0.264583"
       transform="translate(36.861315,37.041666)" />
    <text
       xml:space="preserve"
       style="font-size:52.1369px;line-height:1.25;font-family:'Open Sans';-inkscape-font-specification:'Open Sans, Normal';letter-spacing:0px;word-spacing:0px;stroke-width:1.08618"
       x="86.528183"
       y="55.950775"
       id="text46878"><tspan
         sodipodi:role="line"
         id="tspan46876"
         style="font-style:normal;font-variant:normal;font-weight:normal;font-stretch:normal;font-family:Philosopher;-inkscape-font-specification:Philosopher;stroke-width:1.08618"
         x="86.528183"
         y="55.950775">Revelry</tspan></text>
    <text
       xml:space="preserve"
       style="font-size:17.2198px;line-height:1.25;font-family:'Open Sans';-inkscape-font-specification:'Open Sans, Normal';letter-spacing:6.72649px;word-spacing:0px;stroke-width:0.34086"
       x="119.71289"
       y="72.271767"
       id="text46882"><tspan
         sodipodi:role="line"
         id="tspan46880"
         style="font-style:normal;font-variant:normal;font-weight:bold;font-stretch:normal;font-size:17.2198px;font-family:Philosopher;-inkscape-font-specification:'Philosopher Bold';stroke-width:0.34086"
         x="119.71289"
         y="72.271767">ENGINE</tspan></text>
  </g>
  <g
     inkscape:groupmode="layer"
     id="layer2"
     inkscape:label="Layer 2">
    <rect
       style="fill:#333333;fill-opacity:1;stroke:none;stroke-width:0.761573;stroke-linecap:round;stroke-linejoin:round;stroke-dasharray:none;stroke-opacity:1"
       id="rect59787"
       width="270.95993"
       height="98.61438"
       x="0"
       y="97.021515" />
    <circle
       style="fill:#505658;fill-opacity:1;stroke:none;stroke-width:1.95497;stroke-linecap:round;stroke-linejoin:round;stroke-dasharray:none;stroke-dashoffset:0;stroke-opacity:1"
       id="path6893"
       cx="49.017216"
       cy="43.778744"
       r="35.546848" />
    <path
       sodipodi:type="star"
       style="display:inline;fill:#808080;fill-opacity:1;stroke:none;stroke-width:1.85208;stroke-linecap:round;stroke-linejoin:round;stroke-dasharray:none;stroke-dashoffset:0;stroke-opacity:1"
       id="path7368"
       inkscape:flatsided="true"
       sodipodi:sides="3"
       sodipodi:cx="146.67751"
       sodipodi:cy="-3.7417734"
       sodipodi:r1="125.73973"
       sodipodi:r2="62.869865"
       sodipodi:arg1="-0.75382971"
       sodipodi:arg2="0.29336784"
       inkscape:rounded="0"
       inkscape:randomized="0"
       d="M 238.35095,-89.802561 175.37161,118.68015 26.309954,-40.102913 Z"
       inkscape:transform-center-x="8.0109517"
       inkscape:transform-center-y="1.0522426"
       transform="matrix(0.27654469,-0.06605598,0.06605598,0.27654469,8.9923456,54.559332)" />
    <path
       id="path45293"
       style="display:inline;fill:none;fill-opacity:1;stroke:none;stroke-width:1.05833;stroke-linecap:round;stroke-linejoin:round;stroke-dasharray:none;stroke-opacity:1"
       d="m 23.195927,22.045073 a 33.690947,33.690947 0 0 0 -3.31099,38.42929 33.690947,33.690947 0 0 0 3.29549,4.693942 15.160927,15.160927 0 0 1 7.35174,-15.704003 15.160927,15.160927 0 0 1 20.71021,5.549288 15.160927,15.160927 0 0 1 -5.54928,20.710215 15.160927,15.160927 0 0 1 -2.34374,1.08893 33.690947,33.690947 0 0 0 22.55826,-4.00664 33.690947,33.690947 0 0 0 14.74898,-17.532703 15.160927,15.160927 0 0 1 -2.11491,1.485259 15.160927,15.160927 0 0 1 -20.71021,-5.549281 15.160927,15.160927 0 0 1 5.54928,-20.710211 15.160927,15.160927 0 0 1 17.27098,1.47135 33.690947,33.690947 0 0 0 -2.41237,-5.187095 33.690947,33.690947 0 0 0 -34.90952,-16.35297 15.160927,15.160927 0 0 1 7.91249,6.652787 15.160927,15.160927 0 0 1 -5.54928,20.710211 15.160927,15.160927 0 0 1 -20.71021,-5.54928 15.160927,15.160927 0 0 1 -1.78692,-10.199089 z" />
    <path
       id="path45295"
       style="display:inline;fill:#fdda0d;fill-opacity:1;stroke:none;stroke-width:1.05833332;stroke-linecap:round;stroke-linejoin:round;stroke-dasharray:none;stroke-opacity:1"
       d="m 41.481677,61.135219 c 1e-5,-2.325883 1.8855,-4.21137 4.21137,-4.21137 8.04562,0 8.07843,16.162416 -6.73819,15.882246 -10.97624,-0.20753 -20.40188,-20.684433 -3.36909,-29.177215 16.98912,-8.471001 14.48086,-17.326414 10.06277,-21.764367 -4.41808,-4.437944 -15.37201,-3.059869 -13.70992,7.987806 1.16294,-2.01427 3.73857,-2.704414 5.75284,-1.541473 2.01426,1.162933 2.70441,3.738566 1.54147,5.752835 -4.02282,6.967704 -18.03628,-1.085087 -10.38535,-13.776569 5.66787,-9.401943 28.1142,-7.32633 26.95276,11.670884 -1.15846,18.948508 7.76469,21.204003 13.81711,19.596802 6.05243,-1.60721 10.33594,-11.782627 -0.0627,-15.867041 1.16295,2.014269 0.47281,4.589902 -1.54146,5.752835 -2.01426,1.162941 -4.58989,0.472797 -5.75283,-1.541465 -4.02281,-6.967712 9.95784,-15.077336 17.12352,-2.105685 5.30839,9.609486 -7.7123,28.010763 -23.58366,17.506323 -15.83066,-10.477499 -22.24555,-3.877573 -23.87987,2.167573 -1.63433,6.045157 5.03608,14.842497 13.77259,7.879247 -2.32588,0 -4.21137,-1.8855 -4.21137,-4.211366 z"
       sodipodi:nodetypes="ssssscccssscssssscs" />
    <path
       id="path45297"
       style="display:none;fill:#fff8ce;fill-opacity:1;stroke:none;stroke-width:0.79375;stroke-linecap:round;stroke-linejoin:round;stroke-dasharray:none;stroke-opacity:1"
       d="m 52.690857,20.5614 a 15.160927,15.160927 0 0 1 -6.9978,17.232042 15.160927,15.160927 0 0 1 -2.64418,1.184127 c -1.90942,1.543785 -4.35972,3.103933 -7.46313,4.651328 -4.39469,2.191253 -7.02433,5.180916 -8.32411,8.413763 a 15.160927,15.160927 0 0 1 3.27053,-2.578358 15.160927,15.160927 0 0 1 17.55829,1.7173 c 2.27923,0.881971 4.83896,2.218055 7.70989,4.118171 4.07731,2.698566 7.96528,3.485983 11.4039,3.008338 a 15.160927,15.160927 0 0 1 -9.37277,-7.098741 15.160927,15.160927 0 0 1 -1.73348,-10.455594 c -0.38309,-2.426871 -0.50944,-5.331222 -0.29763,-8.795797 0.29897,-4.890076 -0.96881,-8.656104 -3.10951,-11.396579 z" />
    <text
       xml:space="preserve"
       style="font-size:52.1369px;line-height:1.25;font-family:'Open Sans';-inkscape-font-specification:'Open Sans, Normal';letter-spacing:0px;word-spacing:0px;fill:#ffffff;fill-opacity:1;stroke-width:1.08618"
       x="87.238503"
       y="157.76968"
       id="text46878-2"><tspan
         sodipodi:role="line"
         id="tspan46876-3"
         style="font-style:normal;font-variant:normal;font-weight:normal;font-stretch:normal;font-family:Philosopher;-inkscape-font-specification:Philosopher;fill:#ffffff;fill-opacity:1;stroke-width:1.08618"
         x="87.238503"
         y="157.76968">Revelry</tspan></text>
    <text
       xml:space="preserve"
       style="font-size:16.9333px;line-height:1.25;font-family:'Open Sans';-inkscape-font-specification:'Open Sans, Normal';letter-spacing:6.61458px;word-spacing:0px;fill:#ffffff;fill-opacity:1;stroke-width:0.335189"
       x="121.08899"
       y="174.09642"
       id="text46882-8"><tspan
         sodipodi:role="line"
         id="tspan46880-8"
         style="font-style:normal;font-variant:normal;font-weight:bold;font-stretch:normal;font-size:16.9333px;font-family:Philosopher;-inkscape-font-specification:'Philosopher Bold';fill:#ffffff;fill-opacity:1;stroke-width:0.335189"
         x="121.08899"
         y="174.09642">ENGINE</tspan></text>
    <path
       id="path45293-8"
       style="fill:#505658;fill-opacity:1;stroke:none;stroke-width:0.79375;stroke-linecap:round;stroke-linejoin:round;stroke-dasharray:none;stroke-opacity:1"
       d="m 23.906253,123.86399 a 33.690947,33.690947 0 0 0 -3.31099,38.42929 33.690947,33.690947 0 0 0 3.29549,4.69394 15.160927,15.160927 0 0 1 7.35174,-15.704 15.160927,15.160927 0 0 1 20.71021,5.54929 15.160927,15.160927 0 0 1 -5.54928,20.71021 15.160927,15.160927 0 0 1 -2.34374,1.08893 33.690947,33.690947 0 0 0 22.55826,-4.00664 33.690947,33.690947 0 0 0 14.74898,-17.5327 15.160927,15.160927 0 0 1 -2.11491,1.48526 15.160927,15.160927 0 0 1 -20.71021,-5.54928 15.160927,15.160927 0 0 1 5.54928,-20.71022 15.160927,15.160927 0 0 1 17.27098,1.47135 33.690947,33.690947 0 0 0 -2.41237,-5.18709 33.690947,33.690947 0 0 0 -34.90952,-16.35297 15.160927,15.160927 0 0 1 7.91249,6.65279 15.160927,15.160927 0 0 1 -5.54928,20.71021 15.160927,15.160927 0 0 1 -20.71021,-5.54928 15.160927,15.160927 0 0 1 -1.78692,-10.19909 z" />
    <path
       id="path45295-2"
       style="display:inline;fill:#fdda0d;fill-opacity:1;stroke:#000000;stroke-width:0.79375;stroke-linecap:round;stroke-linejoin:round;stroke-dasharray:none;stroke-opacity:1"
       d="m 42.192003,162.95414 c 1e-5,-2.32589 1.8855,-4.21137 4.21137,-4.21137 8.04562,0 8.07843,16.16241 -6.73819,15.88224 -10.97624,-0.20753 -20.40188,-20.68443 -3.36909,-29.17721 16.98912,-8.47101 14.48086,-17.32642 10.06277,-21.76437 -4.41808,-4.43795 -15.37201,-3.05987 -13.70992,7.9878 1.16294,-2.01427 3.73857,-2.70441 5.75284,-1.54147 2.01426,1.16293 2.70441,3.73857 1.54147,5.75284 -4.02282,6.9677 -18.03628,-1.08509 -10.38535,-13.77657 5.66787,-9.40195 28.1142,-7.32633 26.95276,11.67088 -1.15846,18.94851 7.76469,21.20401 13.81711,19.5968 6.05243,-1.60721 10.33594,-11.78262 -0.0627,-15.86704 1.16295,2.01427 0.47281,4.5899 -1.54146,5.75284 -2.01426,1.16294 -4.58989,0.47279 -5.75283,-1.54147 -4.02281,-6.96771 9.95784,-15.07733 17.12352,-2.10568 5.30839,9.60948 -7.7123,28.01076 -23.58366,17.50632 -15.83066,-10.4775 -22.24555,-3.87757 -23.87987,2.16757 -1.63433,6.04516 5.03608,14.8425 13.77259,7.87925 -2.32588,0 -4.21137,-1.8855 -4.21137,-4.21137 z"
       sodipodi:nodetypes="ssssscccssscssssscs" />
    <text
       xml:space="preserve"
       style="font-size:52.1369px;line-height:1.25;font-family:'Open Sans';-inkscape-font-specification:'Open Sans, Normal';letter-spacing:0px;word-spacing:0px;stroke-width:1.08618"
       x="351.41797"
       y="55.953182"
       id="text46878-8"><tspan
         sodipodi:role="line"
         id="tspan46876-5"
         style="font-style:normal;font-variant:normal;font-weight:normal;font-stretch:normal;font-family:Philosopher;-inkscape-font-specification:Philosopher;stroke-width:1.08618"
         x="351.41797"
         y="55.953182">Revelry</tspan></text>
    <text
       xml:space="preserve"
       style="font-size:17.2198px;line-height:1.25;font-family:'Open Sans';-inkscape-font-specification:'Open Sans, Normal';letter-spacing:6.72649px;word-spacing:0px;stroke-width:0.34086"
       x="384.60266"
       y="72.274178"
       id="text46882-0"><tspan
         sodipodi:role="line"
         id="tspan46880-3"
         style="font-style:normal;font-variant:normal;font-weight:bold;font-stretch:normal;font-size:17.2198px;font-family:Philosopher;-inkscape-font-specification:'Philosopher Bold';stroke-width:0.34086"
         x="384.60266"
         y="72.274178">ENGINE</tspan></text>
    <rect
       style="fill:#333333;fill-opacity:1;stroke:none;stroke-width:0.761573;stroke-linecap:round;stroke-linejoin:round;stroke-dasharray:none;stroke-opacity:1"
       id="rect59787-7"
       width="270.95993"
       height="98.61438"
       x="264.8898"
       y="97.023926" />
    <path
       id="path45293-4"
       style="fill:#505658;fill-opacity:1;stroke:#505658;stroke-width:1.05833;stroke-linecap:round;stroke-linejoin:round;stroke-dasharray:none;stroke-opacity:1"
       d="m 288.08571,22.047477 a 33.690947,33.690947 0 0 0 -3.31099,38.42929 33.690947,33.690947 0 0 0 3.29549,4.693942 15.160927,15.160927 0 0 1 7.35174,-15.704003 15.160927,15.160927 0 0 1 20.71021,5.549288 15.160927,15.160927 0 0 1 -5.54928,20.710215 15.160927,15.160927 0 0 1 -2.34374,1.08893 33.690947,33.690947 0 0 0 22.55826,-4.00664 33.690947,33.690947 0 0 0 14.74898,-17.532703 15.160927,15.160927 0 0 1 -2.11491,1.485259 15.160927,15.160927 0 0 1 -20.71021,-5.549281 15.160927,15.160927 0 0 1 5.54928,-20.710211 15.160927,15.160927 0 0 1 17.27098,1.47135 33.690947,33.690947 0 0 0 -2.41237,-5.187095 33.690947,33.690947 0 0 0 -34.90952,-16.35297 15.160927,15.160927 0 0 1 7.91249,6.652787 15.160927,15.160927 0 0 1 -5.54928,20.710211 15.160927,15.160927 0 0 1 -20.71021,-5.54928 15.160927,15.160927 0 0 1 -1.78692,-10.199089 z" />
    <path
       id="path45295-7"
       style="display:inline;fill:#0daafd;fill-opacity:1;stroke:none;stroke-width:1.05833;stroke-linecap:round;stroke-linejoin:round;stroke-dasharray:none;stroke-opacity:1"
       d="m 306.37146,61.137623 c 10e-6,-2.325883 1.8855,-4.21137 4.21137,-4.21137 8.04562,0 8.07843,16.162416 -6.73819,15.882246 -10.97624,-0.20753 -20.40188,-20.684433 -3.36909,-29.177215 16.98912,-8.471001 14.48086,-17.326414 10.06277,-21.764367 -4.41808,-4.437944 -15.37201,-3.059869 -13.70992,7.987806 1.16294,-2.01427 3.73857,-2.704414 5.75284,-1.541473 2.01426,1.162933 2.70441,3.738566 1.54147,5.752835 -4.02282,6.967704 -18.03628,-1.085087 -10.38535,-13.776569 5.66787,-9.401943 28.1142,-7.32633 26.95276,11.670884 -1.15846,18.948508 7.76469,21.204003 13.81711,19.596802 6.05243,-1.60721 10.33594,-11.782627 -0.0627,-15.867041 1.16295,2.014269 0.47281,4.589902 -1.54146,5.752835 -2.01426,1.162941 -4.58989,0.472797 -5.75283,-1.541465 -4.02281,-6.967712 9.95784,-15.077336 17.12352,-2.105685 5.30839,9.609486 -7.7123,28.010763 -23.58366,17.506323 -15.83066,-10.477499 -22.24555,-3.877573 -23.87987,2.167573 -1.63433,6.045157 5.03608,14.842497 13.77259,7.879247 -2.32588,0 -4.21137,-1.8855 -4.21137,-4.211366 z"
       sodipodi:nodetypes="ssssscccssscssssscs" />
    <text
       xml:space="preserve"
       style="font-size:52.1369px;line-height:1.25;font-family:'Open Sans';-inkscape-font-specification:'Open Sans, Normal';letter-spacing:0px;word-spacing:0px;fill:#ffffff;fill-opacity:1;stroke-width:1.08618"
       x="352.1283"
       y="157.77208"
       id="text46878-2-0"><tspan
         sodipodi:role="line"
         id="tspan46876-3-3"
         style="font-style:normal;font-variant:normal;font-weight:normal;font-stretch:normal;font-family:Philosopher;-inkscape-font-specification:Philosopher;fill:#ffffff;fill-opacity:1;stroke-width:1.08618"
         x="352.1283"
         y="157.77208">Revelry</tspan></text>
    <text
       xml:space="preserve"
       style="font-size:16.9333px;line-height:1.25;font-family:'Open Sans';-inkscape-font-specification:'Open Sans, Normal';letter-spacing:6.61458px;word-spacing:0px;fill:#ffffff;fill-opacity:1;stroke-width:0.335189"
       x="385.97876"
       y="174.09882"
       id="text46882-8-7"><tspan
         sodipodi:role="line"
         id="tspan46880-8-0"
         style="font-style:normal;font-variant:normal;font-weight:bold;font-stretch:normal;font-size:16.9333px;font-family:Philosopher;-inkscape-font-specification:'Philosopher Bold';fill:#ffffff;fill-opacity:1;stroke-width:0.335189"
         x="385.97876"
         y="174.09882">ENGINE</tspan></text>
    <path
       id="path45293-8-2"
       style="fill:#505658;fill-opacity:1;stroke:none;stroke-width:0.79375;stroke-linecap:round;stroke-linejoin:round;stroke-dasharray:none;stroke-opacity:1"
       d="m 288.79604,123.8664 a 33.690947,33.690947 0 0 0 -3.31099,38.42929 33.690947,33.690947 0 0 0 3.29549,4.69394 15.160927,15.160927 0 0 1 7.35174,-15.704 15.160927,15.160927 0 0 1 20.71021,5.54929 15.160927,15.160927 0 0 1 -5.54928,20.71021 15.160927,15.160927 0 0 1 -2.34374,1.08893 33.690947,33.690947 0 0 0 22.55826,-4.00664 33.690947,33.690947 0 0 0 14.74898,-17.5327 15.160927,15.160927 0 0 1 -2.11491,1.48526 15.160927,15.160927 0 0 1 -20.71021,-5.54928 15.160927,15.160927 0 0 1 5.54928,-20.71022 15.160927,15.160927 0 0 1 17.27098,1.47135 33.690947,33.690947 0 0 0 -2.41237,-5.18709 33.690947,33.690947 0 0 0 -34.90952,-16.35297 15.160927,15.160927 0 0 1 7.91249,6.65279 15.160927,15.160927 0 0 1 -5.54928,20.71021 15.160927,15.160927 0 0 1 -20.71021,-5.54928 15.160927,15.160927 0 0 1 -1.78692,-10.19909 z" />
    <path
       id="path45295-2-9"
       style="display:inline;fill:#0daafd;fill-opacity:1;stroke:none;stroke-width:0.79375;stroke-linecap:round;stroke-linejoin:round;stroke-dasharray:none;stroke-opacity:1"
       d="m 307.08179,162.95655 c 10e-6,-2.32589 1.8855,-4.21137 4.21137,-4.21137 8.04562,0 8.07843,16.16241 -6.73819,15.88224 -10.97624,-0.20753 -20.40188,-20.68443 -3.36909,-29.17721 16.98912,-8.47101 14.48086,-17.32642 10.06277,-21.76437 -4.41808,-4.43795 -15.37201,-3.05987 -13.70992,7.9878 1.16294,-2.01427 3.73857,-2.70441 5.75284,-1.54147 2.01426,1.16293 2.70441,3.73857 1.54147,5.75284 -4.02282,6.9677 -18.03628,-1.08509 -10.38535,-13.77657 5.66787,-9.40195 28.1142,-7.32633 26.95276,11.67088 -1.15846,18.94851 7.76469,21.20401 13.81711,19.5968 6.05243,-1.60721 10.33594,-11.78262 -0.0627,-15.86704 1.16295,2.01427 0.47281,4.5899 -1.54146,5.75284 -2.01426,1.16294 -4.58989,0.47279 -5.75283,-1.54147 -4.02281,-6.96771 9.95784,-15.07733 17.12352,-2.10568 5.30839,9.60948 -7.7123,28.01076 -23.58366,17.50632 -15.83066,-10.4775 -22.24555,-3.87757 -23.87987,2.16757 -1.63433,6.04516 5.03608,14.8425 13.77259,7.87925 -2.32588,0 -4.21137,-1.8855 -4.21137,-4.21137 z"
       sodipodi:nodetypes="ssssscccssscssssscs" />
    <path
       id="path45297-9"
       style="display:none;fill:#fff8ce;fill-opacity:1;stroke:#000000;stroke-width:0.79375;stroke-linecap:round;stroke-linejoin:round;stroke-dasharray:none;stroke-opacity:1"
       d="m 53.401183,122.38032 a 15.160927,15.160927 0 0 1 -6.9978,17.23204 15.160927,15.160927 0 0 1 -2.64418,1.18413 c -1.90942,1.54378 -4.35972,3.10393 -7.46313,4.65132 -4.39469,2.19126 -7.02433,5.18092 -8.32411,8.41377 a 15.160927,15.160927 0 0 1 3.27053,-2.57836 15.160927,15.160927 0 0 1 17.55829,1.7173 c 2.27923,0.88197 4.83896,2.21805 7.70989,4.11817 4.07731,2.69857 7.96528,3.48598 11.4039,3.00834 a 15.160927,15.160927 0 0 1 -9.37277,-7.09874 15.160927,15.160927 0 0 1 -1.73348,-10.4556 c -0.38309,-2.42687 -0.50944,-5.33122 -0.29763,-8.7958 0.29897,-4.89007 -0.96881,-8.6561 -3.10951,-11.39657 z" />
    <circle
       style="display:inline;fill:#505658;fill-opacity:1;stroke-width:0.63745;stroke-linecap:round;stroke-linejoin:round"
       id="path8215"
       cx="1.0984368"
       cy="64.796852"
       r="36.425785"
       transform="rotate(-45)" />
    <path
       sodipodi:type="star"
       style="display:inline;fill:#788285;fill-opacity:1;stroke:none;stroke-width:1.85208;stroke-linecap:round;stroke-linejoin:round;stroke-opacity:1"
       id="path14089"
       inkscape:flatsided="true"
       sodipodi:sides="3"
       sodipodi:cx="105.72106"
       sodipodi:cy="105.72106"
       sodipodi:r1="98.824333"
       sodipodi:r2="49.412167"
       sodipodi:arg1="-1.5707963"
       sodipodi:arg2="-0.52359878"
       inkscape:rounded="0"
       inkscape:randomized="0"
       d="m 105.72106,6.8967285 85.58438,148.2365015 -171.168763,0 z"
       inkscape:transform-center-y="-4.4016617"
       transform="matrix(0.33245299,0.08908051,-0.08908051,0.33245299,20.81076,0.47661059)"
       inkscape:transform-center-x="4.4016622" />
    <path
       id="path8157"
       style="display:inline;fill:#fdda0d;fill-opacity:1;stroke:none;stroke-width:0.34418;stroke-linecap:round;stroke-linejoin:round;stroke-opacity:1"
       d="m 43.577234,65.445273 c -0.650846,-2.428991 0.790624,-4.925695 3.219617,-5.576541 8.40231,-2.251393 12.95928,14.618389 -2.592617,18.471917 C 32.683285,81.19537 17.109754,62.448209 32.521159,48.812659 47.893046,35.212056 42.795589,26.665922 36.939765,23.267531 31.083934,19.86914 20.029998,24.37353 24.857237,35.445884 c 0.650845,-2.428992 3.147544,-3.870458 5.576534,-3.219611 2.428993,0.650846 3.870464,3.14754 3.219615,5.576532 -2.251391,8.40231 -19.139537,3.913875 -14.70084,-11.481226 3.288217,-11.404795 27.310494,-15.518289 31.41353,4.646159 4.092518,20.112734 14.042417,19.971286 19.913423,16.599187 5.87101,-3.372108 7.497061,-15.197289 -4.505501,-16.552958 1.778145,1.778145 1.778148,4.661086 4e-6,6.439232 -1.778147,1.778145 -4.661088,1.778145 -6.439235,0 -6.150918,-6.150918 6.18026,-18.532264 17.293457,-6.990692 8.232737,8.550082 -0.216014,31.410729 -19.730452,24.881841 -19.464404,-6.512151 -24.316848,2.175443 -24.332029,8.945936 -0.01518,6.770492 9.412707,14.09129 16.58803,4.374601 -2.428994,0.650846 -4.925694,-0.790629 -5.576539,-3.219612 z"
       sodipodi:nodetypes="ssssscccssscssssscs" />
    <circle
       style="display:inline;fill:#505658;fill-opacity:1;stroke-width:0.603806;stroke-linecap:round;stroke-linejoin:round"
       id="circle14903"
       cx="249.98607"
       cy="194.70514"
       r="34.503235"
       transform="rotate(-30)" />
    <path
       id="path14909"
       style="display:inline;fill:#788285;stroke-width:0.603806;stroke-linecap:round;stroke-linejoin:round"
       inkscape:transform-center-y="1.9729095"
       d="m 329.90595,15.711398 c 0,0 4.64358,18.482294 4.64285,27.915174 -6.6e-4,9.424068 -4.64285,27.88838 -4.64285,27.88838 0,0 -18.26065,-5.258019 -26.41007,-9.959974 -8.1779,-4.718396 -21.91722,-17.941802 -21.91722,-17.941802 0,0 13.74458,-13.198805 21.91722,-17.91501 8.15179,-4.704175 26.41007,-9.986768 26.41007,-9.986768 z"
       sodipodi:nodetypes="cacacac"
       inkscape:transform-center-x="4.5940651" />
    <path
       id="path14911"
       style="display:inline;fill:#fdda0d;fill-opacity:1;stroke:none;stroke-width:0.326015;stroke-linecap:round;stroke-linejoin:round;stroke-opacity:1"
       d="m 306.08362,61.554981 c 0,-2.381955 1.93096,-4.312908 4.31291,-4.312905 8.2396,0 8.2732,16.552088 -6.90065,16.265173 -11.24088,-0.212552 -20.89377,-21.183142 -3.45032,-29.880677 17.39872,-8.675238 14.83,-17.744162 10.30539,-22.289105 -4.52462,-4.544947 -15.74265,-3.133647 -14.04047,8.180381 1.19097,-2.062831 3.8287,-2.769611 5.89153,-1.578635 2.06283,1.190978 2.76961,3.828707 1.57864,5.891538 -4.1198,7.135697 -18.47113,-1.111248 -10.63573,-14.108722 5.80452,-9.628617 28.79202,-7.502968 27.60258,11.952271 -1.18638,19.405353 7.9519,21.715229 14.15024,20.069278 6.19835,-1.645957 10.58514,-12.066704 -0.0642,-16.249595 1.19097,2.062831 0.4842,4.700561 -1.57863,5.891537 -2.06283,1.190975 -4.70057,0.484198 -5.89154,-1.578633 -4.1198,-7.135699 10.19793,-15.440843 17.53638,-2.15645 5.43636,9.841168 -7.89826,28.686106 -24.15227,17.928403 -16.21233,-10.730116 -22.78189,-3.97107 -24.45562,2.219831 -1.67373,6.190901 5.1575,15.200347 14.10465,8.069209 -2.38195,4e-6 -4.3129,-1.93095 -4.31291,-4.312899 z"
       sodipodi:nodetypes="ssssscccssscssssscs" />
  </g>
</svg>
