{
  "asset": {
    "version": "2.0",
    "generator": "KHR XMP Fixture",
    "extensions": {
      "KHR_xmp": { "packet": 0 },
      "KHR_xmp_json_ld": { "packet": 0 }
    }
  },
  "extensionsUsed": [
    "KHR_xmp",
    "KHR_xmp_json_ld"
  ],
  "extensions": {
    "KHR_xmp": {
      "@context": {
        "dc": "http://revelry.local/dc/"
      },
      "packets": [
        { "dc:title": "DC Packet" }
      ]
    },
    "KHR_xmp_json_ld": {
      "packets": [
        {
          "@context": {
            "dc": "http://revelry.local/dc/"
          },
          "dc:title": "DC Packet"
        }
      ]
    }
  },
  "buffers": [
    {
      "name": "AnimationBuffer",
      "uri": "buffers/animation.bin",
      "byteLength": 292
    }
  ],
  "bufferViews": [
    { "name": "Times", "buffer": 0, "byteOffset": 0, "byteLength": 8 },
    { "name": "AnimationTranslations", "buffer": 0, "byteOffset": 8, "byteLength": 24 },
    { "name": "MeshPositions", "buffer": 0, "byteOffset": 8, "byteLength": 24 }
  ],
  "accessors": [
    {
      "name": "TimeAccessor",
      "bufferView": 0,
      "componentType": 5126,
      "count": 2,
      "type": "SCALAR",
      "min": [0],
      "max": [1]
    },
    {
      "name": "AnimationTranslationAccessor",
      "bufferView": 1,
      "componentType": 5126,
      "count": 2,
      "type": "VEC3"
    },
    {
      "name": "MeshPositionAccessor",
      "bufferView": 2,
      "componentType": 5126,
      "count": 2,
      "type": "VEC3",
      "min": [0, 0, 0],
      "max": [1, 2, 3]
    }
  ],
  "materials": [
    {
      "name": "XMPMaterial",
      "extensions": {
        "KHR_xmp": { "packet": 0 },
        "KHR_xmp_json_ld": { "packet": 0 }
      }
    }
  ],
  "meshes": [
    {
      "name": "XMPMesh",
      "primitives": [
        {
          "attributes": { "POSITION": 2 },
          "mode": 0
        }
      ],
      "extensions": {
        "KHR_xmp": { "packet": 0 },
        "KHR_xmp_json_ld": { "packet": 0 }
      }
    }
  ],
  "nodes": [
    {
      "name": "XMPNode",
      "mesh": 0,
      "extensions": {
        "KHR_xmp": { "packet": 0 },
        "KHR_xmp_json_ld": { "packet": 0 }
      }
    }
  ],
  "scenes": [
    {
      "name": "XMPScene",
      "nodes": [0],
      "extensions": {
        "KHR_xmp": { "packet": 0 },
        "KHR_xmp_json_ld": { "packet": 0 }
      }
    }
  ],
  "scene": 0,
  "images": [
    {
      "name": "XMPImage",
      "uri": "textures/baseColor.png",
      "extensions": {
        "KHR_xmp": { "packet": 0 },
        "KHR_xmp_json_ld": { "packet": 0 }
      }
    }
  ],
  "animations": [
    {
      "name": "XMPAnimation",
      "samplers": [
        {
          "input": 0,
          "output": 1,
          "interpolation": "LINEAR"
        }
      ],
      "channels": [
        {
          "sampler": 0,
          "target": { "node": 0, "path": "translation" }
        }
      ],
      "extensions": {
        "KHR_xmp": { "packet": 0 },
        "KHR_xmp_json_ld": { "packet": 0 }
      }
    }
  ]
}
