<?xml version="1.0" encoding="UTF-8" standalone="no"?>
<!-- Created with Inkscape (http://www.inkscape.org/) -->

<svg
   width="898.92926"
   height="260.8118"
   viewBox="0 0 237.84169 69.006456"
   version="1.1"
   id="svg274"
   inkscape:version="1.2.2 (732a01da63, 2022-12-09)"
   sodipodi:docname="revelry-engine-dark.svg"
   xmlns:inkscape="http://www.inkscape.org/namespaces/inkscape"
   xmlns:sodipodi="http://sodipodi.sourceforge.net/DTD/sodipodi-0.dtd"
   xmlns="http://www.w3.org/2000/svg"
   xmlns:svg="http://www.w3.org/2000/svg">
  <sodipodi:namedview
     id="namedview276"
     pagecolor="#505050"
     bordercolor="#eeeeee"
     borderopacity="1"
     inkscape:showpageshadow="0"
     inkscape:pageopacity="0"
     inkscape:pagecheckerboard="true"
     inkscape:deskcolor="#505050"
     inkscape:document-units="px"
     showgrid="false"
     showguides="true"
     inkscape:zoom="0.70710678"
     inkscape:cx="738.21948"
     inkscape:cy="385.3732"
     inkscape:window-width="2560"
     inkscape:window-height="1377"
     inkscape:window-x="1528"
     inkscape:window-y="-8"
     inkscape:window-maximized="1"
     inkscape:current-layer="layer2"
     inkscape:lockguides="true">
    <inkscape:grid
       type="xygrid"
       id="grid13644"
       originx="0"
       originy="0"
       empspacing="10" />
  </sodipodi:namedview>
  <defs
     id="defs271" />
  <g
     inkscape:groupmode="layer"
     id="layer2"
     inkscape:label="Layer 2"
     transform="translate(-14.775153,-111.13603)">
    <g
       aria-label="Revelry"
       id="text46878-2"
       style="font-size:52.1369px;line-height:1.25;font-family:'Open Sans';-inkscape-font-specification:'Open Sans, Normal';letter-spacing:0px;word-spacing:0px;fill:#ffffff;stroke-width:1.08618">
      <path
         d="m 115.70525,158.29105 q -2.76325,0 -4.84873,-1.61624 -2.03334,-1.66838 -4.53591,-5.94361 l -5.21369,-8.86327 h -3.649585 v 15.90175 h -4.692321 v -28.15392 q 0,-2.65899 -0.729917,-3.91027 -0.729916,-1.30342 -2.919666,-1.30342 h -1.042738 v -1.04274 h 13.555597 q 4.953,0 8.96754,1.9812 4.06668,1.92907 4.06668,7.40344 0,6.93421 -8.3419,8.86327 l 5.47437,9.12396 q 1.92907,3.23249 3.44104,4.53591 1.56411,1.25129 3.59745,1.45984 v 1.04273 q -0.46924,0.20855 -1.35556,0.36496 -0.83419,0.15641 -1.77266,0.15641 z M 101.3676,140.04314 q 1.61625,0 3.49318,-0.78206 1.92906,-0.78205 3.23248,-2.45043 1.35556,-1.66838 1.35556,-4.06668 0,-2.55471 -1.35556,-4.22309 -1.30342,-1.72052 -3.23248,-2.50257 -1.87693,-0.83419 -3.49318,-0.83419 -1.824789,0 -3.910265,0.52137 v 13.81628 q 2.085476,0.52137 3.910265,0.52137 z"
         style="font-family:Philosopher;-inkscape-font-specification:Philosopher"
         id="path298" />
      <path
         d="m 131.18988,158.29105 q -3.54531,0 -5.99575,-1.66838 -2.45043,-1.72052 -3.70172,-4.58805 -1.25128,-2.91966 -1.25128,-6.51711 0,-3.54531 1.25128,-6.46497 1.25129,-2.91967 3.59745,-4.58805 2.3983,-1.72052 5.57865,-1.72052 5.26582,0 7.82053,2.9718 2.60685,2.91967 2.60685,8.49832 l -0.10428,2.08548 h -15.79748 q 0,4.3795 1.87693,7.14275 1.87693,2.76326 5.16155,2.76326 2.45044,0 4.11882,-1.04274 1.72052,-1.04274 3.18035,-3.12822 l 1.04274,0.78206 q -1.72052,2.86753 -4.01454,4.17095 -2.29403,1.30342 -5.3701,1.30342 z m 4.953,-14.07696 q 0,-4.58805 -1.35556,-6.98635 -1.35556,-2.39829 -4.11881,-2.39829 -1.56411,0 -2.8154,1.25128 -1.25128,1.19915 -1.9812,3.33676 -0.67778,2.13762 -0.67778,4.7966 z"
         style="font-family:Philosopher;-inkscape-font-specification:Philosopher"
         id="path300" />
      <path
         d="m 148.23873,139.26108 q -1.25128,-2.91966 -2.3983,-4.06667 -1.14701,-1.19915 -3.02394,-1.30343 v -1.04274 q 0.26069,0 0.72992,-0.0521 0.52137,-0.0521 1.04274,-0.0521 2.76325,0 5.00514,1.4077 2.24189,1.35556 3.85813,5.10941 l 4.69232,11.20944 7.29917,-17.20518 h 2.60684 l -10.68806,25.02571 h -1.04274 z"
         style="font-family:Philosopher;-inkscape-font-specification:Philosopher"
         id="path302" />
      <path
         d="m 181.86705,158.29105 q -3.54531,0 -5.99575,-1.66838 -2.45043,-1.72052 -3.70172,-4.58805 -1.25128,-2.91966 -1.25128,-6.51711 0,-3.54531 1.25128,-6.46497 1.25129,-2.91967 3.59745,-4.58805 2.3983,-1.72052 5.57865,-1.72052 5.26582,0 7.82053,2.9718 2.60685,2.91967 2.60685,8.49832 l -0.10428,2.08548 H 175.8713 q 0,4.3795 1.87693,7.14275 1.87693,2.76326 5.16155,2.76326 2.45044,0 4.11882,-1.04274 1.72052,-1.04274 3.18035,-3.12822 l 1.04274,0.78206 q -1.72052,2.86753 -4.01454,4.17095 -2.29403,1.30342 -5.3701,1.30342 z m 4.953,-14.07696 q 0,-4.58805 -1.35556,-6.98635 -1.35556,-2.39829 -4.11881,-2.39829 -1.56411,0 -2.8154,1.25128 -1.25128,1.19915 -1.9812,3.33676 -0.67778,2.13762 -0.67778,4.7966 z"
         style="font-family:Philosopher;-inkscape-font-specification:Philosopher"
         id="path304" />
      <path
         d="m 197.9774,129.61576 q 0,-2.65899 -0.72992,-3.91027 -0.72992,-1.30342 -2.91967,-1.30342 h -1.04273 v -1.04274 h 4.69232 q 1.92906,0 2.86753,0.52137 0.9906,0.46923 1.40769,1.77265 0.4171,1.30342 0.4171,3.96241 v 28.15392 h -4.69232 z"
         style="font-family:Philosopher;-inkscape-font-specification:Philosopher"
         id="path306" />
      <path
         d="m 210.80311,139.52177 q 0,-2.65898 -0.72992,-3.91027 -0.72991,-1.30342 -2.91966,-1.30342 h -0.52137 v -1.04274 h 4.17095 q 1.9812,0 2.9718,0.57351 1.04274,0.52136 1.45984,1.77265 h 0.26068 q 0.93846,-1.19915 2.50257,-2.03334 1.61624,-0.83419 3.75386,-0.83419 2.08547,0 3.12821,0.78205 0.88633,0.67778 1.82479,2.34617 l -2.08547,1.5641 q -0.57351,-0.78205 -1.66838,-1.14701 -1.09488,-0.41709 -2.50257,-0.41709 -1.56411,0 -2.86753,0.72991 -1.30343,0.67778 -2.08548,1.87693 v 19.29065 h -4.69232 z"
         style="font-family:Philosopher;-inkscape-font-specification:Philosopher"
         id="path308" />
      <path
         d="m 232.80484,166.63296 q 2.55471,0 4.17095,-1.19915 1.66838,-1.14701 2.86753,-4.27523 l 1.04274,-2.86753 -8.3419,-20.33339 q -1.45984,-3.75386 -5.73506,-4.17095 v -1.04274 h 4.43163 q 4.53592,0 6.25643,4.17095 l 5.94361,14.44192 6.56925,-18.0915 h 2.60684 l -10.16669,27.89324 q -1.51197,4.11882 -3.33676,5.57865 -1.82479,1.45983 -4.74446,1.45983 h -1.56411 z"
         style="font-family:Philosopher;-inkscape-font-specification:Philosopher"
         id="path310" />
    </g>
    <g
       aria-label="ENGINE"
       id="text46882-8"
       style="font-size:16.9333px;line-height:1.25;font-family:'Open Sans';-inkscape-font-specification:'Open Sans, Normal';letter-spacing:6.61458px;word-spacing:0px;fill:#ffffff;stroke-width:0.335189">
      <path
         d="m 122.69765,165.12177 q 0,-0.8636 -0.23706,-1.27 -0.23707,-0.42333 -0.94827,-0.42333 h -0.16933 v -0.508 h 7.46758 q 1.43933,0 1.43933,1.35467 v 1.43933 h -0.50799 q 0,-1.04987 -0.54187,-1.54093 -0.52493,-0.49107 -1.5748,-0.49107 h -2.72626 v 4.23333 h 4.40266 v 0.76199 h -4.40266 v 4.65666 h 2.8956 q 0.96519,0 1.60866,-0.42333 0.64346,-0.44027 1.0668,-1.50706 l 0.4572,0.16933 -0.49107,1.33773 q -0.22013,0.6096 -0.52493,0.89746 -0.3048,0.28787 -0.94827,0.28787 h -6.26532 z"
         style="font-weight:bold;font-family:Philosopher;-inkscape-font-specification:'Philosopher Bold'"
         id="path313" />
      <path
         d="m 140.36968,165.71444 v 8.38198 h -0.84666 v -9.14398 q 0,-0.7112 -0.3556,-1.1176 -0.33867,-0.4064 -1.1684,-0.4064 h -0.0847 v -0.508 h 1.18533 q 0.94826,0 1.54093,0.254 0.6096,0.23707 1.016,0.762 l 5.82505,6.77332 v -7.78932 h 0.84667 v 11.22678 h -0.77894 z"
         style="font-weight:bold;font-family:Philosopher;-inkscape-font-specification:'Philosopher Bold'"
         id="path315" />
      <path
         d="m 162.88462,174.43509 q -1.72719,0 -3.13266,-0.79587 -1.38853,-0.8128 -2.18439,-2.20133 -0.77894,-1.40546 -0.77894,-3.09879 0,-1.6256 0.69427,-2.92946 0.69426,-1.3208 1.96426,-2.06587 1.28693,-0.76199 2.92946,-0.76199 1.49013,0 2.54,0.38946 1.04986,0.38947 1.55786,0.98213 0.28787,0.37254 0.3556,0.94827 0.0847,0.57573 0.0847,1.40546 h -0.508 q -0.32173,-1.54093 -1.18533,-2.25213 -0.84667,-0.7112 -2.3368,-0.7112 -1.89653,0 -2.81093,1.4224 -0.91439,1.4224 -0.91439,3.57293 0,2.89559 0.99906,4.16559 1.016,1.25306 2.72626,1.25306 1.3208,0 2.286,-0.44026 v -3.01413 q 0,-0.89746 0.67733,-1.4732 0.67733,-0.59266 2.60773,-0.59266 v 0.42333 q -1.08373,0 -1.08373,1.60866 v 3.03107 q -0.9652,0.59266 -2.06587,0.86359 -1.10066,0.27094 -2.42146,0.27094 z"
         style="font-weight:bold;font-family:Philosopher;-inkscape-font-specification:'Philosopher Bold'"
         id="path317" />
      <path
         d="m 178.10131,174.09642 q -0.6096,0 -0.93134,-0.18627 -0.32173,-0.2032 -0.45719,-0.66039 -0.13547,-0.47414 -0.13547,-1.35467 v -8.97465 h 2.20133 v 8.97465 q 0,0.8636 0.23706,1.28693 0.23707,0.4064 0.94827,0.4064 h 0.16933 v 0.508 z"
         style="font-weight:bold;font-family:Philosopher;-inkscape-font-specification:'Philosopher Bold'"
         id="path319" />
      <path
         d="m 189.50803,165.71444 v 8.38198 h -0.84667 v -9.14398 q 0,-0.7112 -0.3556,-1.1176 -0.33866,-0.4064 -1.16839,-0.4064 h -0.0847 v -0.508 h 1.18533 q 0.94827,0 1.54093,0.254 0.6096,0.23707 1.016,0.762 l 5.82505,6.77332 v -7.78932 h 0.84667 v 11.22678 h -0.77893 z"
         style="font-weight:bold;font-family:Philosopher;-inkscape-font-specification:'Philosopher Bold'"
         id="path321" />
      <path
         d="m 206.94298,165.12177 q 0,-0.8636 -0.23707,-1.27 -0.23707,-0.42333 -0.94827,-0.42333 h -0.16933 v -0.508 h 7.46759 q 1.43933,0 1.43933,1.35467 v 1.43933 h -0.508 q 0,-1.04987 -0.54187,-1.54093 -0.52493,-0.49107 -1.57479,-0.49107 h -2.72627 v 4.23333 h 4.40266 v 0.76199 h -4.40266 v 4.65666 h 2.8956 q 0.9652,0 1.60866,-0.42333 0.64347,-0.44027 1.0668,-1.50706 l 0.4572,0.16933 -0.49107,1.33773 q -0.22013,0.6096 -0.52493,0.89746 -0.3048,0.28787 -0.94826,0.28787 h -6.26532 z"
         style="font-weight:bold;font-family:Philosopher;-inkscape-font-specification:'Philosopher Bold'"
         id="path323" />
    </g>
    <path
       id="path45293-8"
       style="fill:#505658;fill-opacity:1;stroke:none;stroke-width:0.79375;stroke-linecap:round;stroke-linejoin:round;stroke-dasharray:none;stroke-opacity:1"
       d="m 23.906253,123.86399 a 33.690947,33.690947 0 0 0 -3.31099,38.42929 33.690947,33.690947 0 0 0 3.29549,4.69394 15.160927,15.160927 0 0 1 7.35174,-15.704 15.160927,15.160927 0 0 1 20.71021,5.54929 15.160927,15.160927 0 0 1 -5.54928,20.71021 15.160927,15.160927 0 0 1 -2.34374,1.08893 33.690947,33.690947 0 0 0 22.55826,-4.00664 33.690947,33.690947 0 0 0 14.74898,-17.5327 15.160927,15.160927 0 0 1 -2.11491,1.48526 15.160927,15.160927 0 0 1 -20.71021,-5.54928 15.160927,15.160927 0 0 1 5.54928,-20.71022 15.160927,15.160927 0 0 1 17.27098,1.47135 33.690947,33.690947 0 0 0 -2.41237,-5.18709 33.690947,33.690947 0 0 0 -34.90952,-16.35297 15.160927,15.160927 0 0 1 7.91249,6.65279 15.160927,15.160927 0 0 1 -5.54928,20.71021 15.160927,15.160927 0 0 1 -20.71021,-5.54928 15.160927,15.160927 0 0 1 -1.78692,-10.19909 z" />
    <path
       id="path45295-2"
       style="display:inline;fill:#fdda0d;fill-opacity:1;stroke:#000000;stroke-width:0.79375;stroke-linecap:round;stroke-linejoin:round;stroke-dasharray:none;stroke-opacity:1"
       d="m 42.192003,162.95414 c 1e-5,-2.32589 1.8855,-4.21137 4.21137,-4.21137 8.04562,0 8.07843,16.16241 -6.73819,15.88224 -10.97624,-0.20753 -20.40188,-20.68443 -3.36909,-29.17721 16.98912,-8.47101 14.48086,-17.32642 10.06277,-21.76437 -4.41808,-4.43795 -15.37201,-3.05987 -13.70992,7.9878 1.16294,-2.01427 3.73857,-2.70441 5.75284,-1.54147 2.01426,1.16293 2.70441,3.73857 1.54147,5.75284 -4.02282,6.9677 -18.03628,-1.08509 -10.38535,-13.77657 5.66787,-9.40195 28.1142,-7.32633 26.95276,11.67088 -1.15846,18.94851 7.76469,21.20401 13.81711,19.5968 6.05243,-1.60721 10.33594,-11.78262 -0.0627,-15.86704 1.16295,2.01427 0.47281,4.5899 -1.54146,5.75284 -2.01426,1.16294 -4.58989,0.47279 -5.75283,-1.54147 -4.02281,-6.96771 9.95784,-15.07733 17.12352,-2.10568 5.30839,9.60948 -7.7123,28.01076 -23.58366,17.50632 -15.83066,-10.4775 -22.24555,-3.87757 -23.87987,2.16757 -1.63433,6.04516 5.03608,14.8425 13.77259,7.87925 -2.32588,0 -4.21137,-1.8855 -4.21137,-4.21137 z"
       sodipodi:nodetypes="ssssscccssscssssscs" />
    <path
       id="path45297-9"
       style="display:none;fill:#fff8ce;fill-opacity:1;stroke:#000000;stroke-width:0.79375;stroke-linecap:round;stroke-linejoin:round;stroke-dasharray:none;stroke-opacity:1"
       d="m 53.401183,122.38032 a 15.160927,15.160927 0 0 1 -6.9978,17.23204 15.160927,15.160927 0 0 1 -2.64418,1.18413 c -1.90942,1.54378 -4.35972,3.10393 -7.46313,4.65132 -4.39469,2.19126 -7.02433,5.18092 -8.32411,8.41377 a 15.160927,15.160927 0 0 1 3.27053,-2.57836 15.160927,15.160927 0 0 1 17.55829,1.7173 c 2.27923,0.88197 4.83896,2.21805 7.70989,4.11817 4.07731,2.69857 7.96528,3.48598 11.4039,3.00834 a 15.160927,15.160927 0 0 1 -9.37277,-7.09874 15.160927,15.160927 0 0 1 -1.73348,-10.4556 c -0.38309,-2.42687 -0.50944,-5.33122 -0.29763,-8.7958 0.29897,-4.89007 -0.96881,-8.6561 -3.10951,-11.39657 z" />
    <circle
       style="display:inline;fill:#505658;fill-opacity:1;stroke-width:0.603806;stroke-linecap:round;stroke-linejoin:round"
       id="circle14903-8"
       cx="-30.143295"
       cy="150.76649"
       r="34.503235"
       transform="rotate(-30)" />
    <path
       id="path14909-5"
       style="display:inline;fill:#788285;stroke-width:0.603806;stroke-linecap:round;stroke-linejoin:round"
       inkscape:transform-center-y="1.9729095"
       d="m 65.337483,117.72409 c 0,0 4.64358,18.48229 4.64285,27.91517 -6.6e-4,9.42407 -4.64285,27.88838 -4.64285,27.88838 0,0 -18.26065,-5.25802 -26.41007,-9.95997 -8.1779,-4.7184 -21.91722,-17.94181 -21.91722,-17.94181 0,0 13.74458,-13.1988 21.91722,-17.91501 8.15179,-4.70417 26.41007,-9.98676 26.41007,-9.98676 z"
       sodipodi:nodetypes="cacacac"
       inkscape:transform-center-x="4.5940651"
       inkscape:export-filename="revelry-dark.svg"
       inkscape:export-xdpi="96"
       inkscape:export-ydpi="96" />
    <path
       id="path14911-2"
       style="display:inline;fill:#fdda0d;fill-opacity:1;stroke:none;stroke-width:0.326015;stroke-linecap:round;stroke-linejoin:round;stroke-opacity:1"
       d="m 41.515153,163.56767 c 0,-2.38195 1.93096,-4.31291 4.31291,-4.3129 8.2396,0 8.2732,16.55208 -6.90065,16.26517 -11.24088,-0.21255 -20.89377,-21.18314 -3.45032,-29.88068 17.39872,-8.67524 14.83,-17.74416 10.30539,-22.28911 -4.52462,-4.54494 -15.74265,-3.13364 -14.04047,8.18039 1.19097,-2.06284 3.8287,-2.76962 5.89153,-1.57864 2.06283,1.19098 2.76961,3.82871 1.57864,5.89154 -4.1198,7.1357 -18.47113,-1.11125 -10.63573,-14.10872 5.80452,-9.62862 28.79202,-7.50297 27.60258,11.95227 -1.18638,19.40535 7.9519,21.71523 14.15024,20.06928 6.19835,-1.64596 10.58514,-12.06671 -0.0642,-16.2496 1.19097,2.06283 0.4842,4.70056 -1.57863,5.89154 -2.06283,1.19097 -4.70057,0.48419 -5.89154,-1.57864 -4.1198,-7.1357 10.19793,-15.44084 17.53638,-2.15645 5.43636,9.84117 -7.89826,28.68611 -24.15227,17.92841 -16.21233,-10.73012 -22.78189,-3.97107 -24.45562,2.21983 -1.67373,6.1909 5.1575,15.20035 14.10465,8.06921 -2.38195,0 -4.3129,-1.93095 -4.31291,-4.3129 z"
       sodipodi:nodetypes="ssssscccssscssssscs" />
  </g>
</svg>
