<?xml version="1.0" encoding="UTF-8" standalone="no"?>
<!-- Created with Inkscape (http://www.inkscape.org/) -->

<svg
   width="260.81189"
   height="260.81186"
   viewBox="0 0 69.006477 69.006472"
   version="1.1"
   id="svg274"
   xmlns="http://www.w3.org/2000/svg"
   xmlns:svg="http://www.w3.org/2000/svg">
  <defs
     id="defs271" />
  <g
     id="layer2"
     transform="translate(-279.3436,-9.123328)">
    <path
       id="path45293-4"
       style="fill:#505658;fill-opacity:1;stroke:#505658;stroke-width:1.05833;stroke-linecap:round;stroke-linejoin:round;stroke-dasharray:none;stroke-opacity:1"
       d="m 288.08571,22.047477 a 33.690947,33.690947 0 0 0 -3.31099,38.42929 33.690947,33.690947 0 0 0 3.29549,4.693942 15.160927,15.160927 0 0 1 7.35174,-15.704003 15.160927,15.160927 0 0 1 20.71021,5.549288 15.160927,15.160927 0 0 1 -5.54928,20.710215 15.160927,15.160927 0 0 1 -2.34374,1.08893 33.690947,33.690947 0 0 0 22.55826,-4.00664 33.690947,33.690947 0 0 0 14.74898,-17.532703 15.160927,15.160927 0 0 1 -2.11491,1.485259 15.160927,15.160927 0 0 1 -20.71021,-5.549281 15.160927,15.160927 0 0 1 5.54928,-20.710211 15.160927,15.160927 0 0 1 17.27098,1.47135 33.690947,33.690947 0 0 0 -2.41237,-5.187095 33.690947,33.690947 0 0 0 -34.90952,-16.35297 15.160927,15.160927 0 0 1 7.91249,6.652787 15.160927,15.160927 0 0 1 -5.54928,20.710211 15.160927,15.160927 0 0 1 -20.71021,-5.54928 15.160927,15.160927 0 0 1 -1.78692,-10.199089 z" />
    <path
       id="path45295-7"
       style="display:inline;fill:#0daafd;fill-opacity:1;stroke:none;stroke-width:1.05833;stroke-linecap:round;stroke-linejoin:round;stroke-dasharray:none;stroke-opacity:1"
       d="m 306.37146,61.137623 c 10e-6,-2.325883 1.8855,-4.21137 4.21137,-4.21137 8.04562,0 8.07843,16.162416 -6.73819,15.882246 -10.97624,-0.20753 -20.40188,-20.684433 -3.36909,-29.177215 16.98912,-8.471001 14.48086,-17.326414 10.06277,-21.764367 -4.41808,-4.437944 -15.37201,-3.059869 -13.70992,7.987806 1.16294,-2.01427 3.73857,-2.704414 5.75284,-1.541473 2.01426,1.162933 2.70441,3.738566 1.54147,5.752835 -4.02282,6.967704 -18.03628,-1.085087 -10.38535,-13.776569 5.66787,-9.401943 28.1142,-7.32633 26.95276,11.670884 -1.15846,18.948508 7.76469,21.204003 13.81711,19.596802 6.05243,-1.60721 10.33594,-11.782627 -0.0627,-15.867041 1.16295,2.014269 0.47281,4.589902 -1.54146,5.752835 -2.01426,1.162941 -4.58989,0.472797 -5.75283,-1.541465 -4.02281,-6.967712 9.95784,-15.077336 17.12352,-2.105685 5.30839,9.609486 -7.7123,28.010763 -23.58366,17.506323 -15.83066,-10.477499 -22.24555,-3.877573 -23.87987,2.167573 -1.63433,6.045157 5.03608,14.842497 13.77259,7.879247 -2.32588,0 -4.21137,-1.8855 -4.21137,-4.211366 z" />
    <circle
       style="display:inline;fill:#505658;fill-opacity:1;stroke-width:0.603806;stroke-linecap:round;stroke-linejoin:round"
       id="circle14903"
       cx="249.98607"
       cy="194.70514"
       r="34.503235"
       transform="rotate(-30)" />
    <path
       id="path14909"
       style="display:inline;fill:#788285;stroke-width:0.603806;stroke-linecap:round;stroke-linejoin:round"
       d="m 329.90595,15.711398 c 0,0 4.64358,18.482294 4.64285,27.915174 -6.6e-4,9.424068 -4.64285,27.88838 -4.64285,27.88838 0,0 -18.26065,-5.258019 -26.41007,-9.959974 -8.1779,-4.718396 -21.91722,-17.941802 -21.91722,-17.941802 0,0 13.74458,-13.198805 21.91722,-17.91501 8.15179,-4.704175 26.41007,-9.986768 26.41007,-9.986768 z" />
    <path
       id="path14911"
       style="display:inline;fill:#fdda0d;fill-opacity:1;stroke:none;stroke-width:0.326015;stroke-linecap:round;stroke-linejoin:round;stroke-opacity:1"
       d="m 306.08362,61.554981 c 0,-2.381955 1.93096,-4.312908 4.31291,-4.312905 8.2396,0 8.2732,16.552088 -6.90065,16.265173 -11.24088,-0.212552 -20.89377,-21.183142 -3.45032,-29.880677 17.39872,-8.675238 14.83,-17.744162 10.30539,-22.289105 -4.52462,-4.544947 -15.74265,-3.133647 -14.04047,8.180381 1.19097,-2.062831 3.8287,-2.769611 5.89153,-1.578635 2.06283,1.190978 2.76961,3.828707 1.57864,5.891538 -4.1198,7.135697 -18.47113,-1.111248 -10.63573,-14.108722 5.80452,-9.628617 28.79202,-7.502968 27.60258,11.952271 -1.18638,19.405353 7.9519,21.715229 14.15024,20.069278 6.19835,-1.645957 10.58514,-12.066704 -0.0642,-16.249595 1.19097,2.062831 0.4842,4.700561 -1.57863,5.891537 -2.06283,1.190975 -4.70057,0.484198 -5.89154,-1.578633 -4.1198,-7.135699 10.19793,-15.440843 17.53638,-2.15645 5.43636,9.841168 -7.89826,28.686106 -24.15227,17.928403 -16.21233,-10.730116 -22.78189,-3.97107 -24.45562,2.219831 -1.67373,6.190901 5.1575,15.200347 14.10465,8.069209 -2.38195,4e-6 -4.3129,-1.93095 -4.31291,-4.312899 z" />
  </g>
</svg>
